<?xml version="1.0" standalone="no"?>
<!DOCTYPE svg PUBLIC "-//W3C//DTD SVG 1.1//EN" "http://www.w3.org/Graphics/SVG/1.1/DTD/svg11.dtd" >
<svg xmlns="http://www.w3.org/2000/svg">
<metadata>
<json>
<![CDATA[
{
	"fontFamily": "ionic-icons-outline",
	"majorVersion": 1,
	"minorVersion": 0,
	"version": "Version 1.0",
	"fontId": "ionic-icons-outline",
	"psName": "ionic-icons-outline",
	"subFamily": "Regular",
	"fullName": "ionic-icons-outline",
	"description": "Font generated by IcoMoon."
}
]]>
</json>
</metadata>
<defs>
<font id="ionic-icons-outline" horiz-adv-x="1024">
<font-face units-per-em="1024" ascent="960" descent="-64" />
<missing-glyph horiz-adv-x="1024" />
<glyph unicode="&#x20;" horiz-adv-x="512" d="" />
<glyph unicode="&#xead3;" glyph-name="volume-mute-outline" data-tags="volume-mute-outline" d="M448 686.16v-67.6c0.004-2.203 0.897-4.196 2.34-5.64v0l48-48c1.448-1.45 3.449-2.346 5.66-2.346 4.413 0 7.992 3.574 8 7.986v148.301c0.002 0.147 0.002 0.32 0.002 0.494 0 18.391-10.12 34.419-25.095 42.819l-0.247 0.127c-6.555 3.597-14.363 5.712-22.665 5.712-10.707 0-20.591-3.519-28.561-9.463l0.126 0.090c-0.499-0.349-0.929-0.683-1.342-1.038l-63.858-52.282c-1.791-1.478-2.923-3.698-2.923-6.183 0-2.209 0.896-4.209 2.343-5.657l34.1-34.12c1.448-1.447 3.448-2.343 5.656-2.343 1.937 0 3.713 0.688 5.097 1.834l-0.013-0.011zM448 209.84l-156.14 127.84c-10.912 8.917-24.999 14.32-40.348 14.32-0.075 0-0.149 0-0.224 0h-123.288v192h101.44c4.412 0.008 7.986 3.587 7.986 8 0 2.211-0.897 4.212-2.346 5.66v0l-48 48c-1.444 1.443-3.437 2.336-5.639 2.34h-69.441c-26.51 0-48-21.49-48-48v0-224c0-26.51 21.49-48 48-48v0h139.52l182.72-149.6c0.391-0.337 0.821-0.671 1.267-0.985l0.053-0.035c7.853-5.866 17.752-9.393 28.475-9.393 8.526 0 16.531 2.229 23.464 6.137l-0.24-0.124c14.886 8.592 24.743 24.426 24.743 42.563 0 0.189-0.001 0.377-0.003 0.566v-0.029 100.34c-0.004 2.203-0.897 4.196-2.34 5.64v0l-48 48c-1.448 1.45-3.449 2.346-5.66 2.346-4.413 0-7.992-3.574-8-7.986v-0.001zM704 448c0 49.12-11.62 95.76-35.5 142.54-5.498 10.158-16.075 16.942-28.236 16.942-17.673 0-32-14.327-32-32 0-5.103 1.195-9.927 3.319-14.208l-0.084 0.186c19.18-37.58 28.5-74.7 28.5-113.46q0-8-0.62-16.26c-0.028-0.356-0.044-0.77-0.044-1.188 0-4.417 1.79-8.416 4.684-11.312l39.32-39.34c1.449-1.456 3.455-2.357 5.671-2.357 3.836 0 7.042 2.7 7.82 6.304l0.010 0.053c4.523 19.251 7.131 41.364 7.16 64.080v0.020zM832 448c0 102.38-26.16 167.78-68.36 240.12-5.696 9.361-15.843 15.518-27.429 15.518-17.673 0-32-14.327-32-32 0-5.793 1.539-11.226 4.231-15.913l-0.082 0.156c37.78-64.76 59.64-119.54 59.64-207.88 0-47.66-6.58-85.76-18.74-121.3-0.554-1.555-0.875-3.349-0.875-5.218 0-4.413 1.786-8.408 4.675-11.302v0l33.54-33.52c1.449-1.454 3.453-2.354 5.668-2.354 3.297 0 6.128 1.994 7.352 4.842l0.020 0.052c20.54 49.040 32.36 100.98 32.36 168.8zM960 448c0 148.52-40.38 242.22-101.020 337.22-5.778 8.957-15.706 14.804-27 14.804-17.686 0-32.024-14.338-32.024-32.024 0-6.392 1.873-12.347 5.1-17.346l-0.076 0.126c54.66-85.54 91.020-169.78 91.020-302.78 0-94.9-17.8-164.24-47.18-226-0.496-1.012-0.787-2.202-0.787-3.46 0-2.201 0.889-4.194 2.327-5.641v0l35.64-35.68c1.45-1.459 3.457-2.362 5.675-2.362 3.090 0 5.771 1.752 7.104 4.317l0.021 0.044c42.96 84.34 61.2 166.78 61.2 268.78z" />
<glyph unicode="&#xead6;" glyph-name="wallet-outline" data-tags="wallet-outline" d="M736 320c-35.346 0-64 28.654-64 64s28.654 64 64 64c35.346 0 64-28.654 64-64v0c0-35.346-28.654-64-64-64v0z" />
<glyph unicode="&#xead7;" glyph-name="warning-outline" data-tags="warning-outline" d="M512 165.5c-22.091 0-40 17.909-40 40s17.909 40 40 40c22.091 0 40-17.909 40-40v0c0-22.091-17.909-40-40-40v0z" />
<glyph unicode="&#xeada;" glyph-name="wifi-outline" data-tags="wifi-outline" d="M512 128c-35.346 0-64 28.654-64 64s28.654 64 64 64c35.346 0 64-28.654 64-64v0c0-35.346-28.654-64-64-64v0z" />
<glyph unicode="&#xeadf;" glyph-name="stop-circle-outline" data-tags="stop-circle-outline" d="M620.8 288h-217.6c-28.268 0.023-51.177 22.932-51.2 51.198v217.602c0.023 28.268 22.932 51.177 51.198 51.2h217.602c28.268-0.023 51.177-22.932 51.2-51.198v-217.602c-0.023-28.268-22.932-51.177-51.198-51.2h-0.002z" />
<glyph unicode="&#xeaef;" glyph-name="thermometer-outline" data-tags="thermometer-outline" d="M608 192c0-53.019-42.981-96-96-96s-96 42.981-96 96c0 53.019 42.981 96 96 96s96-42.981 96-96z" />
<glyph unicode="&#xeaf5;" glyph-name="timer-outline" data-tags="timer-outline" d="M466.76 402.74l-158 226c-1.831 2.595-2.927 5.823-2.927 9.307 0 8.98 7.28 16.26 16.26 16.26 3.484 0 6.712-1.096 9.359-2.962l-0.051 0.034 226-158c16.444-11.945 27.013-31.11 27.013-52.744 0-35.899-29.101-65-65-65-13.632 0-26.283 4.196-36.734 11.368l0.221-0.143c-6.305 4.406-11.648 9.666-16.006 15.686l-0.134 0.194z" />
<glyph unicode="&#xeafc;" glyph-name="trash-outline" data-tags="trash-outline" d="M160 736h704" />
<glyph unicode="&#xeb01;" glyph-name="tv-outline" data-tags="tv-outline" d="M256 128h512" />
<glyph unicode="&#xeb14;" glyph-name="sad-outline" data-tags="sad-outline" d="M416 496c0-26.51-21.49-48-48-48s-48 21.49-48 48c0 26.51 21.49 48 48 48s48-21.49 48-48zM512 384c90.84 0 167.24-59.060 191.42-139.66 0.381-1.302 0.601-2.797 0.601-4.344 0-8.837-7.163-16-16-16-0.12 0-0.239 0.001-0.359 0.004h-351.362c-0.071-0.001-0.156-0.002-0.24-0.002-8.837 0-16 7.163-16 16 0 1.546 0.219 3.041 0.628 4.455l-0.028-0.113c23.98 80.6 100.4 139.66 191.34 139.66zM704 496c0-26.51-21.49-48-48-48s-48 21.49-48 48c0 26.51 21.49 48 48 48s48-21.49 48-48z" />
<glyph unicode="&#xeb23;" glyph-name="shield-half-outline" data-tags="shield-half-outline" d="M512 864c-161.42-72.9-235.36-96.66-414.2-128.74-32.4-513.52 383.36-690.84 414.2-703.26z" />
<glyph unicode="&#xeb2a;" glyph-name="speedometer-outline" data-tags="speedometer-outline" d="M652.2 496.2l-95-151c-3.946-5.427-8.573-10.054-13.822-13.877l-0.178-0.123c-9.608-6.776-21.558-10.831-34.455-10.831-33.259 0-60.22 26.961-60.22 60.22 0 19.891 9.643 37.529 24.51 48.494l0.165 0.116 151 95c3.263 2.3 7.321 3.675 11.7 3.675s8.437-1.376 11.765-3.719l-0.065 0.043c5.079-3.698 8.343-9.624 8.343-16.313 0-4.385-1.403-8.442-3.783-11.747l0.041 0.060z" />
<glyph unicode="&#xeb2c;" glyph-name="star-half-outline" data-tags="star-half-outline" d="M512 864v-632l-276-200 108 320-280 192h344l104 320z" />
<glyph unicode="&#xeb2d;" glyph-name="person-circle-outline" data-tags="person-circle-outline" d="M517.8 864c-233.96 3.16-424.96-187.84-421.8-421.8 3.12-224.38 185.82-407.080 410.2-410.2 234-3.2 424.96 187.8 421.76 421.76-3.080 224.42-185.78 407.12-410.16 410.24zM770.64 209.5c-1.466-1.582-3.555-2.569-5.874-2.569-2.612 0-4.932 1.252-6.392 3.188l-0.015 0.020c-17.983 23.374-39.401 43.035-63.703 58.584l-0.997 0.596c-50.92 32.68-115.44 50.68-181.66 50.68s-130.74-18-181.66-50.68c-25.299-16.138-46.717-35.792-64.269-58.578l-0.431-0.582c-1.475-1.957-3.794-3.209-6.406-3.209-2.319 0-4.408 0.987-5.869 2.563l-0.005 0.005c-56.6 60.965-91.823 142.466-93.356 232.174l-0.004 0.306c-3.26 194.62 156.44 357.52 351.14 358s352.86-157.62 352.86-352c0-0.079 0-0.172 0-0.266 0-92.090-35.501-175.889-93.564-238.456l0.204 0.222zM512 672c-39.44 0-75.1-14.78-100.44-41.64s-38-64-35.14-103.86c5.8-78.5 66.62-142.5 135.58-142.5s129.66 64 135.58 142.48c2.96 39.48-9.6 76.28-35.36 103.64-25.44 27-61.040 41.88-100.22 41.88z" />
<glyph unicode="&#xeb33;" glyph-name="pin-outline" data-tags="pin-outline" d="M544 632c0 9.941-8.059 18-18 18v0h-28c-9.941 0-18-8.059-18-18v0-587.12c0.004-8.939 1.835-17.449 5.139-25.179l-0.159 0.419 20.14-48c1.358-2.45 3.929-4.081 6.88-4.081s5.522 1.631 6.86 4.041l0.020 0.040 20.14 48c3.145 7.311 4.976 15.821 4.98 24.758v0.002zM608 816c0-26.51-21.49-48-48-48s-48 21.49-48 48c0 26.51 21.49 48 48 48s48-21.49 48-48z" />
<glyph unicode="&#xeb35;" glyph-name="pizza-outline" data-tags="pizza-outline" d="M448 576c0-35.346-28.654-64-64-64s-64 28.654-64 64c0 35.346 28.654 64 64 64s64-28.654 64-64zM704 544c0-35.346-28.654-64-64-64s-64 28.654-64 64c0 35.346 28.654 64 64 64s64-28.654 64-64zM576 320c0-35.346-28.654-64-64-64s-64 28.654-64 64c0 35.346 28.654 64 64 64s64-28.654 64-64z" />
<glyph unicode="&#xeb37;" glyph-name="play-back-circle-outline" data-tags="play-back-circle-outline" d="M234.46 466.6l228.9 138.28c3.163 1.925 6.989 3.065 11.080 3.065 11.907 0 21.56-9.653 21.56-21.56 0-0.044 0-0.088 0-0.132v0.007-106.64l207.36 125.26c3.163 1.925 6.989 3.065 11.080 3.065 11.907 0 21.56-9.653 21.56-21.56 0-0.044 0-0.088 0-0.132v0.007-276.52c0-0.037 0-0.081 0-0.125 0-11.907-9.653-21.56-21.56-21.56-4.092 0-7.917 1.14-11.176 3.119l0.096-0.054-207.36 125.26v-106.64c0-0.037 0-0.081 0-0.125 0-11.907-9.653-21.56-21.56-21.56-4.092 0-7.917 1.14-11.176 3.119l0.096-0.054-228.9 138.28c-6.307 3.89-10.448 10.761-10.448 18.6s4.141 14.71 10.355 18.546l0.094 0.054z" />
<glyph unicode="&#xeb39;" glyph-name="play-circle-outline" data-tags="play-circle-outline" d="M432.64 291.12l228.9 138.28c6.307 3.89 10.448 10.761 10.448 18.6s-4.141 14.71-10.355 18.546l-0.094 0.054-228.9 138.28c-3.163 1.925-6.989 3.065-11.080 3.065-11.907 0-21.56-9.653-21.56-21.56 0-0.044 0-0.088 0-0.132v0.007-276.52c0-0.037 0-0.081 0-0.125 0-11.907 9.653-21.56 21.56-21.56 4.092 0 7.917 1.14 11.176 3.119l-0.096-0.054z" />
<glyph unicode="&#xeb3a;" glyph-name="play-forward-circle-outline" data-tags="play-forward-circle-outline" d="M789.54 466.6l-228.9 138.28c-3.163 1.925-6.989 3.065-11.080 3.065-11.907 0-21.56-9.653-21.56-21.56 0-0.044 0-0.088 0-0.132v0.007-106.64l-207.36 125.26c-3.163 1.925-6.989 3.065-11.080 3.065-11.907 0-21.56-9.653-21.56-21.56 0-0.044 0-0.088 0-0.132v0.007-276.52c0-0.037 0-0.081 0-0.125 0-11.907 9.653-21.56 21.56-21.56 4.092 0 7.917 1.14 11.176 3.119l-0.096-0.054 207.36 125.26v-106.64c0-0.037 0-0.081 0-0.125 0-11.907 9.653-21.56 21.56-21.56 4.092 0 7.917 1.14 11.176 3.119l-0.096-0.054 228.9 138.28c6.307 3.89 10.448 10.761 10.448 18.6s-4.141 14.71-10.355 18.546l-0.094 0.054z" />
<glyph unicode="&#xeb3d;" glyph-name="play-skip-back-circle-outline" data-tags="play-skip-back-circle-outline" d="M384 608c17.673 0 32-14.327 32-32v0-106l223.36 134.92c3.163 1.925 6.989 3.065 11.081 3.065 11.907 0 21.56-9.653 21.56-21.56 0-0.058 0-0.116-0.001-0.174v0.009-276.52c0-0.037 0-0.081 0-0.125 0-11.907-9.653-21.56-21.56-21.56-4.092 0-7.917 1.14-11.176 3.119l0.096-0.054-223.36 134.88v-106c0-17.673-14.327-32-32-32s-32 14.327-32 32v0 256c0 17.673 14.327 32 32 32v0z" />
<glyph unicode="&#xeb3f;" glyph-name="play-skip-forward-circle-outline" data-tags="play-skip-forward-circle-outline" d="M640 608c-17.673 0-32-14.327-32-32v0-106l-223.36 134.88c-3.163 1.925-6.989 3.065-11.080 3.065-11.907 0-21.56-9.653-21.56-21.56 0-0.044 0-0.088 0-0.132v0.007-276.52c0-0.037 0-0.081 0-0.125 0-11.907 9.653-21.56 21.56-21.56 4.092 0 7.917 1.14 11.176 3.119l-0.096-0.054 223.36 134.88v-106c0-17.673 14.327-32 32-32s32 14.327 32 32v0 256c0 17.673-14.327 32-32 32v0z" />
<glyph unicode="&#xeb43;" glyph-name="pricetag-outline" data-tags="pricetag-outline" d="M768 640c-35.346 0-64 28.654-64 64s28.654 64 64 64c35.346 0 64-28.654 64-64v0c0-35.346-28.654-64-64-64v0z" />
<glyph unicode="&#xeb44;" glyph-name="pricetags-outline" data-tags="pricetags-outline" d="M704 672c-35.346 0-64 28.654-64 64s28.654 64 64 64c35.346 0 64-28.654 64-64v0c0-35.346-28.654-64-64-64v0z" />
<glyph unicode="&#xeb45;" glyph-name="print-outline" data-tags="print-outline" d="M832 592c0-26.51-21.49-48-48-48s-48 21.49-48 48c0 26.51 21.49 48 48 48s48-21.49 48-48z" />
<glyph unicode="&#xeb49;" glyph-name="qr-code-outline" data-tags="qr-code-outline" d="M688 288h128c8.837 0 16-7.163 16-16v-128c0-8.837-7.163-16-16-16h-128c-8.837 0-16 7.163-16 16v128c0 8.837 7.163 16 16 16zM560 416h96c8.837 0 16-7.163 16-16v-96c0-8.837-7.163-16-16-16h-96c-8.837 0-16 7.163-16 16v96c0 8.837 7.163 16 16 16zM848 128h96c8.837 0 16-7.163 16-16v-96c0-8.837-7.163-16-16-16h-96c-8.837 0-16 7.163-16 16v96c0 8.837 7.163 16 16 16zM880 416h64c8.837 0 16-7.163 16-16v-64c0-8.837-7.163-16-16-16h-64c-8.837 0-16 7.163-16 16v64c0 8.837 7.163 16 16 16zM560 96h64c8.837 0 16-7.163 16-16v-64c0-8.837-7.163-16-16-16h-64c-8.837 0-16 7.163-16 16v64c0 8.837 7.163 16 16 16zM688 768h128c8.837 0 16-7.163 16-16v-128c0-8.837-7.163-16-16-16h-128c-8.837 0-16 7.163-16 16v128c0 8.837 7.163 16 16 16zM208 768h128c8.837 0 16-7.163 16-16v-128c0-8.837-7.163-16-16-16h-128c-8.837 0-16 7.163-16 16v128c0 8.837 7.163 16 16 16zM208 288h128c8.837 0 16-7.163 16-16v-128c0-8.837-7.163-16-16-16h-128c-8.837 0-16 7.163-16 16v128c0 8.837 7.163 16 16 16z" />
<glyph unicode="&#xeb4b;" glyph-name="radio-button-on-outline" data-tags="radio-button-on-outline" d="M800 448c0-159.058-128.942-288-288-288s-288 128.942-288 288c0 159.058 128.942 288 288 288s288-128.942 288-288z" />
<glyph unicode="&#xeb4c;" glyph-name="radio-outline" data-tags="radio-outline" d="M576 447.96c0-35.346-28.654-64-64-64s-64 28.654-64 64c0 35.346 28.654 64 64 64s64-28.654 64-64z" />
<glyph unicode="&#xeb53;" glyph-name="reload-circle-outline" data-tags="reload-circle-outline" d="M734.64 636c-4.703-0.020-8.949-1.961-11.997-5.077l-119.083-119.083c-3.13-3.119-5.067-7.433-5.067-12.2 0-9.51 7.71-17.22 17.22-17.22 0.010 0 0.019 0 0.029 0h119.079c9.521 0 17.24 7.719 17.24 17.24v0 119.12c0 0.012 0 0.026 0 0.041 0 9.51-7.71 17.22-17.22 17.22-0.049 0-0.098 0-0.148-0.001h0.008z" />
<glyph unicode="&#xeb54;" glyph-name="reload-outline" data-tags="reload-outline" d="M928 765.16v-221.16c0-17.673-14.327-32-32-32v0h-221.16c-28.52 0-42.8 34.46-22.64 54.62l221.18 221.18c20.16 20.2 54.62 5.88 54.62-22.64z" />
<glyph unicode="&#xeb57;" glyph-name="mail-unread-outline" data-tags="mail-unread-outline" d="M959.8 703.9c0-52.964-42.936-95.9-95.9-95.9s-95.9 42.936-95.9 95.9c0 52.964 42.936 95.9 95.9 95.9s95.9-42.936 95.9-95.9zM864 576c-70.637 0-127.9 57.263-127.9 127.9s57.263 127.9 127.9 127.9c70.637 0 127.9-57.263 127.9-127.9v0c-0.057-70.614-57.286-127.843-127.894-127.9h-0.006zM864 767.8c-0.030 0-0.065 0-0.1 0-35.346 0-64-28.654-64-64s28.654-64 64-64c35.346 0 64 28.654 64 64v0c0 0 0 0 0 0 0 35.311-28.597 63.943-63.894 64h-0.006z" />
<glyph unicode="&#xeb61;" glyph-name="mic-circle-outline" data-tags="mic-circle-outline" d="M512 704c53.019 0 96-42.981 96-96v-128c0-53.019-42.981-96-96-96s-96 42.981-96 96v128c0 53.019 42.981 96 96 96z" />
<glyph unicode="&#xeb62;" glyph-name="mic-off-circle-outline" data-tags="mic-off-circle-outline" d="M512 32c-229.38 0-416 186.62-416 416s186.62 416 416 416 416-186.62 416-416-186.62-416-416-416zM512 800c-194 0-352-158-352-352s158-352 352-352 352 157.9 352 352-157.9 352-352 352zM704 222c-0.017 0-0.038 0-0.059 0-9.355 0-17.769 4.032-23.597 10.454l-0.024 0.026-384 420c-5.004 5.621-8.062 13.072-8.062 21.236 0 17.673 14.327 32 32 32 9.239 0 17.563-3.915 23.405-10.177l0.017-0.019 384-420c5.158-5.661 8.317-13.221 8.317-21.52 0-17.672-14.325-31.998-31.997-32v0zM704 463.56v47.6c0.001 0.094 0.002 0.205 0.002 0.317 0 16.126-11.709 29.518-27.089 32.136l-0.193 0.027c-19.76 2.96-36.72-13.020-36.72-32.24v-47.84c-0.031-11.467-2.283-22.399-6.349-32.4l0.209 0.58c-0.354-0.871-0.56-1.881-0.56-2.94 0-2.075 0.79-3.965 2.085-5.387l-0.006 0.006 38.38-42.2c0.735-0.81 1.791-1.316 2.966-1.316 1.438 0 2.699 0.759 3.404 1.899l0.010 0.017c14.851 23.166 23.724 51.403 23.86 81.704v0.036zM608 480v128c-0.159 52.955-43.045 95.841-95.985 96h-0.015c-34.574-0.060-64.861-18.358-81.762-45.785l-0.238-0.415c-0.726-1.181-1.156-2.611-1.156-4.142 0-2.083 0.796-3.981 2.101-5.404l-0.005 0.006 168.84-185.72c0.735-0.817 1.796-1.328 2.977-1.328 1.972 0 3.61 1.427 3.94 3.304l0.003 0.024c0.812 4.639 1.285 9.988 1.3 15.446v0.014zM493.14 389.6l-72.92 80.22c-0.368 0.416-0.903 0.676-1.499 0.676-1.105 0-2-0.895-2-2 0-0.097 0.007-0.193 0.020-0.287l-0.001 0.011c5.291-40.547 35.095-72.881 73.849-81.873l0.651-0.127c0.156-0.044 0.336-0.069 0.522-0.069 1.105 0 2 0.895 2 2 0 0.57-0.238 1.084-0.621 1.448l-0.001 0.001zM575.1 256h-31.1v35.48c9.849 1.757 18.28 3.879 26.48 6.514l-1.42-0.394c1.65 0.518 2.825 2.034 2.825 3.824 0 1.040-0.397 1.988-1.048 2.699l0.003-0.003-42.14 46.38c-1.449 1.607-3.537 2.613-5.861 2.613-0.253 0-0.503-0.012-0.751-0.035l0.032 0.002c-3.38-0.3-6.78-0.48-10.12-0.48-72 0-128 59.64-128 110.96v47.64c0.001 0.091 0.001 0.198 0.001 0.306 0 17.504-13.829 31.777-31.157 32.492l-0.065 0.002c-0.286 0.009-0.623 0.015-0.961 0.015-17.574 0-31.82-14.246-31.82-31.82 0-0.068 0-0.137 0.001-0.205v0.011-48.44c0-46.72 21.88-91.22 61.58-125.32 26.956-23.244 60.346-39.76 97.142-46.564l1.278-0.196v-35.48h-31.1c-17.22 0-32-13.24-32.86-30.46-0.024-0.46-0.037-0.998-0.037-1.54 0-17.672 14.325-31.998 31.997-32h128c0.011 0 0.024 0 0.037 0 17.673 0 32 14.327 32 32 0 0.542-0.013 1.080-0.040 1.615l0.003-0.075c-0.84 17.22-15.68 30.46-32.9 30.46z" />
<glyph unicode="&#xeb63;" glyph-name="mic-off-outline" data-tags="mic-off-outline" d="M800 480v63.1c0 17.22-13.24 32-30.46 32.86-0.46 0.024-0.998 0.037-1.54 0.037-17.672 0-31.998-14.325-32-31.997v0-64c0-0.033 0-0.073 0-0.112 0-16.473-1.785-32.528-5.172-47.984l0.271 1.477c-0.115-0.512-0.181-1.1-0.181-1.704 0-2.211 0.886-4.215 2.322-5.677l43.639-43.619c0.724-0.724 1.724-1.172 2.829-1.172 1.711 0 3.171 1.074 3.742 2.584l0.009 0.028c10.479 28.564 16.54 61.546 16.54 95.944 0 0.083 0 0.166 0 0.249v-0.013zM512 256c-123.547 0.408-223.592 100.453-224 223.961v63.139c0 17.22-13.24 32-30.46 32.86-0.46 0.024-0.998 0.037-1.54 0.037-17.672 0-31.998-14.325-32-31.997v0-64c0-148 112.2-270.24 256-286.22v-97.78h-95.1c-17.22 0-32-13.24-32.86-30.46-0.024-0.46-0.037-0.998-0.037-1.54 0-17.672 14.325-31.998 31.997-32h255.1c17.22 0 32 13.24 32.86 30.46 0.024 0.46 0.037 0.998 0.037 1.54 0 17.672-14.325 31.998-31.997 32h-96v97.78c38.711 4.413 73.909 15.909 105.492 33.188l-1.492-0.748c2.508 1.384 4.178 4.011 4.178 7.028 0 2.217-0.902 4.223-2.358 5.672v0l-35.82 35.82c-1.445 1.431-3.433 2.315-5.628 2.315-1.232 0-2.398-0.278-3.44-0.775l0.048 0.021c-27.18-12.818-59.040-20.3-92.646-20.3-0.117 0-0.235 0-0.352 0h0.018zM512 800c0.492 0.009 1.073 0.015 1.655 0.015 52.114 0 94.36-42.246 94.36-94.36 0-0.582-0.005-1.162-0.016-1.741l0.001 0.087v-149.44c0.004-2.203 0.897-4.196 2.34-5.64l54.84-54.92c0.723-0.719 1.72-1.163 2.82-1.163 2.209 0 4 1.791 4 4 0 0.001 0 0.002 0 0.003v0 205.34c0 87.82-70 160.62-157.72 161.82-0.87 0.017-1.895 0.027-2.923 0.027-55.986 0-105.227-28.878-133.641-72.551l-0.376-0.616c-0.799-1.224-1.274-2.722-1.274-4.332 0-2.215 0.9-4.219 2.354-5.668v0l39.080-39.080c0.723-0.72 1.721-1.166 2.823-1.166 1.64 0 3.050 0.987 3.667 2.4l0.010 0.026c15.009 33.811 48.288 56.966 86.975 56.966 0.36 0 0.72-0.002 1.079-0.006h-0.055zM414.54 474.2l-55.72 55.8c-0.723 0.719-1.72 1.163-2.82 1.163-2.209 0-4-1.791-4-4 0-0.001 0-0.002 0-0.003v0-45.16c0.031-44.393 17.938-84.598 46.911-113.811l-0.011 0.011c28.627-29.733 68.773-48.201 113.232-48.201 15.083 0 29.67 2.126 43.477 6.094l-1.109-0.273c1.695 0.49 2.914 2.027 2.914 3.85 0 1.116-0.457 2.124-1.193 2.85v0l-49.82 49.82c-1.266 1.248-2.939 2.086-4.803 2.297l-0.037 0.003c-43.3 5.040-78.96 40.88-84.74 84.86-0.227 1.849-1.055 3.473-2.28 4.7v0z" />
<glyph unicode="&#xeb69;" glyph-name="navigate-circle-outline" data-tags="navigate-circle-outline" d="M673.52 638l-373.060-164.7c-20.94-9.6-13.9-41.34 9.14-41.34h178.4c4.418 0 8-3.582 8-8v0-178.36c0-23.040 32-30 41.56-9.12l164.44 373.040c1.248 2.639 1.977 5.733 1.977 8.997 0 11.852-9.608 21.46-21.46 21.46-3.264 0-6.358-0.729-9.128-2.033l0.131 0.055z" />
<glyph unicode="&#xeb6b;" glyph-name="newspaper-outline" data-tags="newspaper-outline" d="M352 544h-128c-17.673 0-32 14.327-32 32v0 128c0 17.673 14.327 32 32 32v0h128c17.673 0 32-14.327 32-32v0-128c0-17.673-14.327-32-32-32v0z" />
<glyph unicode="&#xeb6c;" glyph-name="notifications-circle-outline" data-tags="notifications-circle-outline" d="M730.4 334c-32.66 38.68-55.72 54.94-55.72 161.6 0 97.72-51.56 132.46-94 149.34-5.918 2.514-10.466 7.284-12.629 13.202l-0.051 0.158c-7.42 24.5-28.24 45.7-56 45.7s-48.62-21.2-56-45.72c-2.201-6.078-6.744-10.85-12.512-13.304l-0.148-0.056c-42.48-16.92-94-51.6-94-149.34 0-106.66-23.080-122.92-55.74-161.6-13.54-16-1.3-46 22.38-46h392.020c23.54 0.020 35.88 30.020 22.4 46.020zM440.48 256c-0.013 0-0.029 0-0.044 0-4.418 0-8-3.582-8-8 0-0.296 0.016-0.588 0.047-0.876l-0.003 0.036c4.5-37.44 37.74-55.16 79.52-55.16 41.34 0 74.28 18.3 79.32 55.040 0.037 0.288 0.058 0.622 0.058 0.96 0 4.418-3.582 8-8 8-0.020 0-0.041 0-0.061 0h0.003z" />
<glyph unicode="&#xeb6d;" glyph-name="notifications-off-circle-outline" data-tags="notifications-off-circle-outline" d="M440.48 256c-0.013 0-0.029 0-0.044 0-4.418 0-8-3.582-8-8 0-0.296 0.016-0.588 0.047-0.876l-0.003 0.036c4.5-37.44 37.74-55.16 79.52-55.16s75 17.72 79.46 55.16c0.028 0.252 0.044 0.544 0.044 0.84 0 4.418-3.582 8-8 8-0.016 0-0.031 0-0.047 0h0.002zM704 204c-0.017 0-0.038 0-0.059 0-9.355 0-17.769 4.032-23.597 10.454l-0.024 0.026-384 424c-5.004 5.621-8.062 13.072-8.062 21.236 0 17.673 14.327 32 32 32 9.239 0 17.563-3.915 23.405-10.177l0.017-0.019 384-424c5.158-5.661 8.317-13.221 8.317-21.52 0-17.672-14.325-31.998-31.997-32v0zM349.36 495.58c0-106.66-23.080-122.92-55.74-161.6-13.54-16-1.3-46 22.38-46h237.66c4.417 0.001 7.997 3.583 7.997 8 0 2.084-0.797 3.982-2.103 5.406l0.005-0.006-196 213.74c-1.467 1.592-3.562 2.585-5.889 2.585-4.286 0-7.785-3.371-7.99-7.607l-0.001-0.018c-0.2-4.66-0.32-9.5-0.32-14.5zM730.4 334c-32.66 38.68-55.72 54.94-55.72 161.6 0 97.72-51.56 132.46-94 149.34-5.918 2.514-10.466 7.284-12.629 13.202l-0.051 0.158c-7.42 24.5-28.24 45.7-56 45.7s-48.62-21.2-56-45.72c-2.201-6.078-6.744-10.85-12.512-13.304l-0.148-0.056c-2.56-1.020-5.14-2.1-7.76-3.26-2.805-1.284-4.719-4.067-4.719-7.296 0-2.095 0.806-4.003 2.124-5.429l-0.005 0.005 289.020-315.36c1.467-1.596 3.565-2.592 5.895-2.592 4.418 0 8 3.582 8 8 0 0.173-0.005 0.345-0.016 0.515l0.001-0.023c-0.181 5.551-2.22 10.594-5.512 14.56l0.032-0.040z" />
<glyph unicode="&#xeb71;" glyph-name="nutrition-outline" data-tags="nutrition-outline" d="M647.84 793.72c-42-42-91.32-54-117.64-57.58-0.686-0.104-1.477-0.164-2.283-0.164-8.837 0-16 7.163-16 16 0 0.572 0.030 1.137 0.089 1.693l-0.006-0.069c5.072 46.784 25.99 87.919 57.194 118.635l0.026 0.025c44 44 92 53.8 117.44 55.7 0.436 0.042 0.942 0.066 1.454 0.066 8.837 0 16-7.163 16-16 0-0.672-0.041-1.334-0.122-1.984l0.008 0.078c-5.365-45.809-25.811-86.057-56.16-116.4v0zM480 352c0-53.019-21.49-96-48-96s-48 42.981-48 96c0 53.019 21.49 96 48 96s48-42.981 48-96zM640 352c0-53.019-21.49-96-48-96s-48 42.981-48 96c0 53.019 21.49 96 48 96s48-42.981 48-96z" />
<glyph unicode="&#xeb7a;" glyph-name="people-circle-outline" data-tags="people-circle-outline" d="M512 32c-229.38 0-416 186.62-416 416s186.62 416 416 416 416-186.62 416-416-186.62-416-416-416zM512 800c-194 0-352-158-352-352s158-352 352-352 352 157.9 352 352-157.9 352-352 352zM647.34 376c-34.8 0-68.42 15.44-94.68 43.46-25.079 27.138-41.323 62.771-43.972 102.129l-0.028 0.511c-2.94 41.4 9.76 79.5 35.76 107.24s62.34 42.66 102.92 42.66c40.28 0 76.74-15.24 102.66-42.92s38.94-66 36-107.020v0c-2.728-39.847-18.961-75.453-44.105-102.716l0.105 0.116c-26.28-28.020-59.88-43.46-94.66-43.46zM758.96 524v0zM327.64 369.28c-59.52 0-111.86 55.020-116.66 122.66-2.46 34.64 8.3 66.66 30.34 90.16s52.44 36 86.3 36 64.24-12.88 86.14-36.28 33-55.64 30.5-90c-4.88-67.54-57.2-122.54-116.62-122.54zM840.74 249.44c-3.18 9.4-10.92 19.42-26.44 28.92-46.92 28.66-104.64 43.82-166.96 43.82-61.14 0-120.46-15.8-167.060-44.5-52.5-32.34-87.78-79.5-102-136.36-3.36-13.38-8.26-38.28-3.020-52.22 40.553-15.89 87.51-25.1 136.618-25.1 138.764 0 260.354 73.535 327.926 183.763l0.956 1.677zM327.26 157.26c14.14 56.42 44.24 103.46 90.94 141.5 3.565 2.956 5.818 7.386 5.818 12.342 0 7.048-4.557 13.031-10.885 15.165l-0.113 0.033c-24 7.66-51.4 11.76-85.38 11.76-47.64 0-98.22-12.9-136.28-36.34-10.8-6.66-21.4-9.22-29.56-11.5 33.684-73.263 87.247-132.527 153.8-172.305l1.76-0.975 3.58 0.28c0.867 14.631 3.121 28.315 6.648 41.478l-0.328-1.438z" />
<glyph unicode="&#xeb7e;" glyph-name="happy-outline" data-tags="happy-outline" d="M416 496c0-26.51-21.49-48-48-48s-48 21.49-48 48c0 26.51 21.49 48 48 48s48-21.49 48-48zM512.1 192c-90.84 0-167.24 59.060-191.42 139.66-0.381 1.301-0.6 2.796-0.6 4.342 0 8.837 7.163 16 16 16 0.085 0 0.169-0.001 0.253-0.002h351.367c0.071 0.001 0.156 0.002 0.24 0.002 8.837 0 16-7.163 16-16 0-1.546-0.219-3.041-0.628-4.455l0.028 0.113c-23.98-80.6-100.4-139.66-191.24-139.66zM704 496c0-26.51-21.49-48-48-48s-48 21.49-48 48c0 26.51 21.49 48 48 48s48-21.49 48-48z" />
<glyph unicode="&#xeb81;" glyph-name="heart-circle-outline" data-tags="heart-circle-outline" d="M512 240c-6.723 0.006-12.96 2.084-18.108 5.63l0.108-0.070c-78.6 53.36-112.64 90-131.4 112.82-40 48.74-59.16 98.8-58.6 153 0.62 62.12 50.44 112.66 111.060 112.66 40.8 0 70-21.26 88.2-40.82 2.192-2.315 5.288-3.756 8.72-3.756s6.528 1.441 8.715 3.751l0.005 0.006c18.22 19.56 47.4 40.82 88.2 40.82 60.62 0 110.44-50.54 111.060-112.66 0.56-54.2-18.62-104.26-58.6-153-18.76-22.88-52.8-59.46-131.4-112.82-5.029-3.469-11.25-5.546-17.956-5.56h-0.004z" />
<glyph unicode="&#xeb82;" glyph-name="heart-dislike-circle-outline" data-tags="heart-dislike-circle-outline" d="M666.4 364.62c36.56 46.78 54.12 94.86 53.58 146.74-0.62 62.12-50.44 112.66-111.060 112.66-40.8 0-70-21.28-88.22-40.84-2.173-2.34-5.266-3.8-8.7-3.8s-6.527 1.46-8.693 3.792l-0.007 0.007c-18.22 19.56-47.42 40.84-88.22 40.84l-3.080-0.020c-4.361-0.075-7.867-3.627-7.867-7.999 0-2.221 0.905-4.231 2.367-5.681l0.001-0.001 248-246.42c1.428-1.479 3.428-2.397 5.642-2.397 2.548 0 4.811 1.215 6.243 3.098l0.014 0.019zM317.68 518c-1.446 1.44-3.441 2.33-5.643 2.33-4.337 0-7.868-3.452-7.996-7.758v-0.012c0-0.42 0-0.86 0-1.28-0.56-54.2 18.62-104.26 58.6-153 18.76-22.88 52.8-59.46 131.4-112.82 5.036-3.488 11.274-5.572 18-5.572s12.964 2.084 18.106 5.641l-0.106-0.069c10.3 6.98 19.8 13.68 28.62 20 2 1.472 3.284 3.817 3.284 6.462 0 2.22-0.904 4.228-2.364 5.677v0zM672 224c-0.015 0-0.033 0-0.052 0-8.819 0-16.801 3.586-22.567 9.379l-352.001 352.001c-5.449 5.727-8.801 13.492-8.801 22.041 0 17.673 14.327 32 32 32 8.548 0 16.314-3.352 22.054-8.813l351.987-351.987c5.786-5.79 9.365-13.787 9.365-22.62 0-17.668-14.318-31.992-31.984-32h-0.001z" />
<glyph unicode="&#xeb83;" glyph-name="heart-dislike-outline" data-tags="heart-dislike-outline" d="M835.68 64c-0.016 0-0.036 0-0.055 0-8.854 0-16.866 3.61-22.642 9.438l-0.002 0.002-731.68 736.040c-5.75 5.784-9.304 13.757-9.304 22.56 0 17.675 14.329 32.004 32.004 32.004 8.872 0 16.902-3.61 22.698-9.442l0.002-0.002 731.66-736c5.775-5.788 9.345-13.777 9.345-22.6 0-17.673-14.327-32-32-32-0.009 0-0.018 0-0.027 0h0.001zM729.84 800c-96.18 0-160-59.1-193.84-102-33.76 42.96-97.66 102-193.84 102-0.044 0-0.097 0-0.15 0-22.059 0-43.341-3.326-63.372-9.504l1.521 0.404 55.84-54.9c44.52 0 91.62-18 127.88-53.34 16.831-16.407 31.283-35.14 42.862-55.707l0.638-1.233c5.379-10.548 16.16-17.646 28.6-17.646s23.221 7.098 28.516 17.465l0.084 0.181c12.224 21.832 26.689 40.592 43.488 56.97l0.052 0.050c36.26 35.26 77.2 53.26 121.72 53.26 86.3 0 157.24-72.66 158.14-162 1.080-107.38-45.5-199.1-114.76-279.040l45.26-45.54c6 6.88 11.4 13.28 16.28 19.2 80 97.5 118.3 197.6 117.22 306-1.24 124.34-100.9 225.38-222.14 225.38zM536 96c-175.24 118.98-354 268.8-352 478 0.139 13.113 1.764 25.778 4.715 37.924l-0.235-1.144-50.48 50.94c-11.090-25.657-17.678-55.507-17.999-86.857l-0.001-0.123c-1.080-108.44 37.26-208.54 117.22-306 37.54-45.74 105.6-118.9 262.78-225.6 10.070-6.981 22.548-11.152 36-11.152s25.93 4.171 36.211 11.291l-0.211-0.138c40.7 27.62 75.4 53 105.16 76.22l-45.32 45.62c-31.34-24.18-63.66-47.080-95.84-68.98z" />
<glyph unicode="&#xeb84;" glyph-name="heart-half-outline" data-tags="heart-half-outline" d="M705.84 832c-96.18 0-160-59.080-193.84-102-33.76 42.98-97.66 102-193.84 102-121.24 0-220.9-101.080-222.16-225.3-1.080-108.42 37.26-208.54 117.22-306 37.54-45.76 105.6-118.92 262.78-225.62 10.070-6.981 22.548-11.152 36-11.152s25.93 4.171 36.211 11.291l-0.211-0.138c157.18 106.7 225.24 179.86 262.78 225.62 80 97.48 118.3 197.6 117.22 306-1.26 124.22-100.92 225.3-222.16 225.3zM512 128v416.84c0 39.26 10.46 77.52 28.42 112.44 0.052 0.125 0.105 0.23 0.166 0.331l-0.006-0.011c12.224 21.832 26.689 40.592 43.488 56.97l0.052 0.050c36.26 35.38 77.2 53.38 121.72 53.38 86.3 0 157.24-72.64 158.14-162 2.020-209.22-176.72-359.020-351.98-478z" />
<glyph unicode="&#xeb87;" glyph-name="help-circle-outline" data-tags="help-circle-outline" d="M540 264c0-22.091-17.909-40-40-40s-40 17.909-40 40c0 22.091 17.909 40 40 40s40-17.909 40-40z" />
<glyph unicode="&#xeb88;" glyph-name="help-outline" data-tags="help-outline" d="M560 160.020c0-35.346-28.654-64-64-64s-64 28.654-64 64c0 35.346 28.654 64 64 64s64-28.654 64-64z" />
<glyph unicode="&#xeb8a;" glyph-name="hourglass-outline" data-tags="hourglass-outline" d="M686.6 96h-348.34c-31.2 0-40 36-18.12 58.32 52.96 53.68 159.86 92.12 159.86 153.68v204c0 39.7-76 70-123.020 134.4-7.76 10.62-6.98 25.6 12.74 25.6h285.46c16.82 0 20.46-14.86 12.8-25.5-46.34-64.5-123.98-94.6-123.98-134.5v-204c0-61.060 111.42-94 160.8-153.74 19.9-24.080 12.94-58.26-18.2-58.26z" />
<glyph unicode="&#xeb8c;" glyph-name="id-card-outline" data-tags="id-card-outline" d="M666.96 390.98c-14.502 15.423-35.039 25.028-57.819 25.028-0.401 0-0.801-0.003-1.201-0.009l0.060 0.001c-23.2 0-44.18-8.82-59.080-24.86s-22.4-38.24-20.68-62c3.42-46.96 39.2-85.14 79.76-85.14s76.28 38.18 79.74 85.1c1.76 23.56-5.64 45.54-20.78 61.88zM743.38 64h-270.76c-0.114-0.002-0.249-0.003-0.385-0.003-7.272 0-13.791 3.221-18.21 8.313l-0.025 0.030c-3.758 4.478-6.041 10.303-6.041 16.662 0 1.833 0.19 3.621 0.55 5.347l-0.030-0.169c6.5 35.12 26.76 64.62 58.6 85.32 28.28 18.38 64.12 28.5 100.92 28.5s72.64-10.12 100.92-28.5c31.84-20.7 52.1-50.2 58.6-85.32 0.331-1.557 0.521-3.345 0.521-5.178 0-6.359-2.283-12.185-6.074-16.702l0.033 0.040c-4.444-5.122-10.964-8.343-18.235-8.343-0.135 0-0.27 0.001-0.405 0.003h0.020z" />
<glyph unicode="&#xeb90;" glyph-name="information-circle-outline" data-tags="information-circle-outline" d="M496 700c-28.719 0-52-23.281-52-52s23.281-52 52-52c28.719 0 52 23.281 52 52v0c0 28.719-23.281 52-52 52v0z" />
<glyph unicode="&#xeb91;" glyph-name="information-outline" data-tags="information-outline" d="M512 640c-35.346 0-64 28.654-64 64s28.654 64 64 64c35.346 0 64-28.654 64-64v0c0-35.346-28.654-64-64-64v0z" />
<glyph unicode="&#xeb92;" glyph-name="invert-mode-outline" data-tags="invert-mode-outline" d="M512 608v-320c-88.366 0-160 71.634-160 160s71.634 160 160 160v0zM512 864v-256c88.366 0 160-71.634 160-160s-71.634-160-160-160v0-256c229.76 0 416 186.24 416 416s-186.24 416-416 416z" />
<glyph unicode="&#xeb97;" glyph-name="laptop-outline" data-tags="laptop-outline" d="M32 128h960" />
<glyph unicode="&#xeba4;" glyph-name="magnet-outline" data-tags="magnet-outline" d="M384 32v96M180.36 116.36l67.88 67.88M96 320h96" />
<glyph unicode="&#xeba5;" glyph-name="eye-off-outline" data-tags="eye-off-outline" d="M864 64c-0.015 0-0.033 0-0.052 0-8.819 0-16.801 3.586-22.567 9.379l-704.001 704.001c-5.449 5.727-8.801 13.492-8.801 22.041 0 17.673 14.327 32 32 32 8.548 0 16.314-3.352 22.054-8.813l703.987-703.987c5.786-5.79 9.365-13.787 9.365-22.62 0-17.668-14.318-31.992-31.984-32h-0.001zM511.32 192c-82.98 0-163 24.56-237.84 73-68.14 44-129.48 107.020-177.4 182v0.16c39.88 57.14 83.56 105.46 130.48 144.42 0.879 0.739 1.434 1.839 1.434 3.069 0 1.096-0.441 2.089-1.155 2.812v0l-39.84 39.78c-0.725 0.731-1.73 1.183-2.84 1.183-0.986 0-1.888-0.357-2.586-0.948l0.006 0.005c-49.84-42-96.1-93.52-138.16-153.84-7.17-10.179-11.46-22.836-11.46-36.495 0-12.851 3.797-24.814 10.33-34.831l-0.15 0.245c52.82-82.66 120.8-152.28 196.56-201.3 85.3-55.26 177.1-83.26 272.62-83.26 54.306 0.174 106.407 9.372 154.959 26.171l-3.359-1.011c1.592 0.552 2.715 2.039 2.715 3.788 0 1.106-0.449 2.108-1.175 2.832v0l-43.16 43.16c-1.44 1.406-3.412 2.273-5.586 2.273-0.738 0-1.452-0.1-2.13-0.287l0.056 0.013c-30.653-8.219-65.846-12.94-102.142-12.94-0.062 0-0.125 0-0.187 0h0.009zM981.68 482.8c-52.92 81.84-121.58 151.36-198.54 201.060-85.14 55.040-179.14 84.14-271.82 84.14-53.702-0.098-105.179-9.491-152.952-26.655l3.172 0.995c-1.577-0.56-2.685-2.040-2.685-3.778 0-1.111 0.453-2.117 1.185-2.842v0l43.1-43.1c1.443-1.419 3.423-2.295 5.608-2.295 0.766 0 1.507 0.108 2.208 0.309l-0.056-0.014c30.109 8.471 64.689 13.353 100.405 13.38h0.015c81.38 0 161.16-24.86 237.1-74 69.42-44.8 131.48-107.76 179.52-182 0.034-0.044 0.055-0.099 0.055-0.16s-0.021-0.116-0.055-0.161v0.001c-35.951-56.065-78.432-104.023-127.234-144.646l-1.006-0.814c-0.892-0.739-1.456-1.847-1.456-3.087 0-1.097 0.442-2.091 1.157-2.813v0l39.8-39.78c0.725-0.732 1.731-1.185 2.842-1.185 0.976 0 1.87 0.349 2.565 0.93l-0.006-0.005c53.115 44.919 98.566 96.629 135.641 154.239l1.639 2.721c6.334 9.798 10.1 21.771 10.1 34.624 0 12.983-3.842 25.069-10.451 35.182l0.151-0.247zM512 640c-0.031 0-0.067 0-0.104 0-15.117 0-29.826-1.749-43.934-5.056l1.298 0.256c-1.832-0.39-3.187-1.995-3.187-3.916 0-1.112 0.454-2.118 1.186-2.843v0l225.18-225.12c0.725-0.733 1.731-1.187 2.844-1.187 1.921 0 3.526 1.354 3.912 3.161l0.005 0.026c3.053 12.824 4.804 27.547 4.804 42.68 0 106.039-85.961 192-192 192-0.001 0-0.003 0-0.004 0v0zM331.56 492.68c-0.725 0.733-1.731 1.187-2.844 1.187-1.921 0-3.526-1.354-3.912-3.161l-0.005-0.026c-3.076-12.872-4.84-27.65-4.84-42.84 0-106.039 85.961-192 192-192 15.19 0 29.969 1.764 44.141 5.098l-1.301-0.258c1.832 0.39 3.187 1.995 3.187 3.916 0 1.112-0.454 2.118-1.186 2.843v0z" />
<glyph unicode="&#xebb0;" glyph-name="finger-print-outline" data-tags="finger-print-outline" d="M780.84 809.44c-0.016 0-0.034 0-0.053 0-3.903 0-7.557 1.070-10.683 2.933l0.096-0.053c-88.76 47.52-165.5 67.68-257.5 67.68-91.54 0-178.46-22.56-257.52-67.68-11.18-6.32-24.96-1.92-31.44 9.68-1.743 3.306-2.766 7.225-2.766 11.383 0 8.979 4.771 16.843 11.917 21.195l0.109 0.062c79.936 46.14 175.817 73.362 278.056 73.362 0.578 0 1.156-0.001 1.733-0.003h-0.089c98.46 0 184.46-22.56 278.78-72.96 7.469-4.165 12.437-12.018 12.437-21.031 0-4.069-1.013-7.901-2.799-11.259l0.063 0.13c-3.559-7.888-11.301-13.307-20.323-13.44h-0.017zM119.26 557.44c-5.028 0.037-9.672 1.65-13.471 4.368l0.071-0.048c-6.032 4.518-9.894 11.648-9.894 19.68 0 5.205 1.622 10.030 4.387 14l-0.053-0.080c45.78 67.2 104 120 173.38 156.96 145.16 77.68 331.020 78.24 476.64 0.48 69.36-36.96 127.6-89.28 173.38-156 2.699-3.889 4.312-8.709 4.312-13.906 0-8.031-3.852-15.163-9.809-19.649l-0.063-0.045c-3.711-2.798-8.4-4.481-13.482-4.481-7.871 0-14.8 4.038-18.826 10.157l-0.052 0.085c-41.6 60.48-94.3 108-156.72 141.12-132.68 70.56-302.36 70.56-434.58-0.48-62.88-33.6-115.58-81.6-157.18-142-3.499-6.115-9.985-10.17-17.417-10.17-0.219 0-0.437 0.004-0.654 0.011l0.032-0.001zM408.2-22c-0.061-0.001-0.133-0.001-0.205-0.001-6.349 0-12.050 2.775-15.956 7.179l-0.019 0.022c-40.22 41.84-62.020 68.8-92.92 126.8-32 59.040-48.54 131.040-48.54 208.32 0 142.56 117.42 258.72 261.68 258.72s261.76-116.16 261.76-258.72c0.006-0.203 0.010-0.441 0.010-0.68 0-12.769-10.351-23.12-23.12-23.12s-23.12 10.351-23.12 23.12c0 0.239 0.004 0.477 0.011 0.715l-0.001-0.035c0 116.16-96.64 210.72-215.44 210.72s-215.54-94.56-215.54-210.72c0-69.12 14.78-132.96 42.98-184.8 29.6-55.2 50-78.72 85.54-116.16 4.062-4.477 6.549-10.448 6.549-17s-2.487-12.523-6.568-17.021l0.019 0.021c-4.384-4.422-10.412-7.207-17.091-7.359l-0.029-0.001zM739.7 66.8c-55.020 0-103.56 14.4-143.32 42.72-66.682 47.171-109.752 123.889-110 210.681v0.039c-0.013 0.287-0.020 0.624-0.020 0.962 0 12.78 10.36 23.14 23.14 23.14s23.14-10.36 23.14-23.14c0-0.338-0.007-0.675-0.022-1.010l0.002 0.048c0.168-70.527 35.317-132.81 89.010-170.435l0.67-0.445c32.82-23.040 71.2-34 117.44-34 17.181 0.314 33.739 2.047 49.834 5.088l-1.834-0.288c12.48 2.4 24.5-6.24 26.8-19.68 0.264-1.331 0.414-2.861 0.414-4.426 0-11.58-8.256-21.231-19.203-23.389l-0.151-0.025c-16.709-3.462-35.995-5.549-55.732-5.759l-0.168-0.001zM646.76-32c-2.173 0.093-4.226 0.437-6.184 1.006l0.184-0.046c-73.52 21.12-121.6 49.44-172 100.8-64.74 66.72-100.32 155.52-100.32 250.56 0 77.76 63.8 141.12 142.38 141.12s142.4-63.36 142.4-141.12c0-51.36 43-93.12 96.16-93.12s96.16 41.76 96.16 93.12c0 180.96-150.26 327.84-335.18 327.84-131.3 0-251.5-75.84-305.58-193.44-18-38.88-27.28-84.48-27.28-134.4 0-37.44 3.22-96.48 30.96-173.28 4.64-12.48-1.38-26.4-13.4-30.72-2.396-0.94-5.17-1.485-8.072-1.485-9.952 0-18.406 6.409-21.461 15.325l-0.048 0.16c-21.356 56.49-33.732 121.796-33.76 189.988v0.012c0 57.6 10.64 110 31.44 155.52 61.5 134 197.88 220.8 347.2 220.8 210.36 0 381.42-168.48 381.42-375.84 0-77.76-63.8-141.12-142.4-141.12s-142.4 63.36-142.4 141.12c0.020 51.36-42.98 93.2-96.14 93.2s-96.16-41.76-96.16-93.12c0-82 30.52-158.88 86.46-216.48 44-45.12 86-70 151.18-88.8 12.48-3.36 19.42-16.8 16.18-29.28-2.112-10.324-10.985-18.027-21.709-18.319l-0.031-0.001z" />
<glyph unicode="&#xebb1;" glyph-name="fish-outline" data-tags="fish-outline" d="M864 480.020c0-17.673-14.327-32-32-32s-32 14.327-32 32c0 17.673 14.327 32 32 32s32-14.327 32-32z" />
<glyph unicode="&#xebb5;" glyph-name="flash-off-outline" data-tags="flash-off-outline" d="M864 64c-0.015 0-0.033 0-0.052 0-8.819 0-16.801 3.586-22.567 9.379l-704.001 704.001c-5.449 5.727-8.801 13.492-8.801 22.041 0 17.673 14.327 32 32 32 8.548 0 16.314-3.352 22.054-8.813l703.987-703.987c5.786-5.79 9.365-13.787 9.365-22.62 0-17.668-14.318-31.992-31.984-32h-0.001zM588.68 791.44l-44.16-241.68c-0.334-1.735-0.525-3.731-0.525-5.772 0-10.461 5.020-19.75 12.783-25.589l0.082-0.059c5.377-3.963 12.134-6.343 19.446-6.343 0.146 0 0.291 0.001 0.436 0.003h188.218l-76.74-94.84c-1.107-1.361-1.778-3.117-1.778-5.028 0-2.207 0.893-4.204 2.338-5.652v0l34.14-34.14c1.448-1.45 3.45-2.347 5.661-2.347 2.505 0 4.74 1.151 6.207 2.953l0.012 0.015 121.6 150.32c4.695 5.626 7.546 12.934 7.546 20.908 0 2.773-0.345 5.466-0.994 8.038l0.048-0.226c-3.68 13.912-16.154 24-30.984 24-0.006 0-0.011 0-0.017 0h-217.619l56.42 308.74c0.1 0.6 0.2 1.18 0.26 1.78 0.188 1.398 0.295 3.015 0.295 4.657 0 20.379-16.521 36.9-36.9 36.9-11.728 0-22.177-5.471-28.936-14l-0.059-0.077-185.16-228.92c-1.113-1.363-1.787-3.123-1.787-5.039 0-2.211 0.897-4.212 2.347-5.66l34.14-34.12c1.448-1.45 3.45-2.347 5.661-2.347 2.505 0 4.74 1.151 6.207 2.953l0.012 0.015zM435.56 104.86l44 241.42c0.329 1.722 0.517 3.703 0.517 5.728 0 10.476-5.034 19.775-12.814 25.613l-0.083 0.059c-5.383 3.951-12.14 6.322-19.45 6.322-0.137 0-0.274-0.001-0.411-0.002h-188.179l76.72 94.84c1.107 1.361 1.778 3.117 1.778 5.028 0 2.207-0.893 4.204-2.338 5.652v0l-34.14 34.14c-1.447 1.444-3.444 2.336-5.65 2.336-2.5 0-4.731-1.146-6.199-2.942l-0.011-0.014-121.7-150.32c-4.695-5.626-7.546-12.934-7.546-20.908 0-2.773 0.345-5.466 0.994-8.038l-0.048 0.226c3.68-13.912 16.154-24 30.984-24 0.006 0 0.011 0 0.017 0h217.659l-56.18-308.72v-0.22c-0.34-1.876-0.534-4.035-0.534-6.24 0-20.291 16.449-36.74 36.74-36.74 11.634 0 22.005 5.407 28.737 13.846l0.057 0.074 185.22 228.92c1.113 1.363 1.787 3.123 1.787 5.039 0 2.211-0.897 4.212-2.347 5.66l-34.14 34.12c-1.448 1.45-3.45 2.347-5.661 2.347-2.505 0-4.74-1.151-6.207-2.953l-0.012-0.015z" />
<glyph unicode="&#xebb7;" glyph-name="flashlight-outline" data-tags="flashlight-outline" d="M489.36 385.44c0-22.091-17.909-40-40-40s-40 17.909-40 40c0 22.091 17.909 40 40 40s40-17.909 40-40z" />
<glyph unicode="&#xebbf;" glyph-name="game-controller-outline" data-tags="game-controller-outline" d="M624 512c0-22.091-17.909-40-40-40s-40 17.909-40 40c0 22.091 17.909 40 40 40s40-17.909 40-40zM672 384c-22.091 0-40 17.909-40 40s17.909 40 40 40c22.091 0 40-17.909 40-40 0-0.035 0-0.070 0-0.105v0.005c-0.057-22.048-17.944-39.9-40-39.9 0 0 0 0 0 0v0zM712 600c0-22.091-17.909-40-40-40s-40 17.909-40 40c0 22.091 17.909 40 40 40s40-17.909 40-40zM800 512c0-22.091-17.909-40-40-40s-40 17.909-40 40c0 22.091 17.909 40 40 40s40-17.909 40-40z" />
<glyph unicode="&#xebce;" glyph-name="code-working-outline" data-tags="code-working-outline" d="M564 448c0-28.719-23.281-52-52-52s-52 23.281-52 52c0 28.719 23.281 52 52 52s52-23.281 52-52zM744 448c0-28.719-23.281-52-52-52s-52 23.281-52 52c0 28.719 23.281 52 52 52s52-23.281 52-52zM384 448c0-28.719-23.281-52-52-52s-52 23.281-52 52c0 28.719 23.281 52 52 52s52-23.281 52-52z" />
<glyph unicode="&#xebcf;" glyph-name="cog-outline" data-tags="cog-outline" d="M913.4 475.46l-52.16 8.4c-6.902 1.194-12.234 6.675-13.19 13.556l-0.010 0.084c-1 6.4-2 12.82-3.4 19.020-0.206 0.968-0.324 2.080-0.324 3.22 0 5.968 3.235 11.18 8.047 13.979l0.077 0.041 46.18 25.64c5.248 2.725 8.77 8.119 8.77 14.335 0 1.975-0.356 3.868-1.007 5.616l0.036-0.111-8 22c-2.276 6.163-8.101 10.478-14.933 10.478-1.373 0-2.706-0.174-3.977-0.502l0.11 0.024-51.78-10c-0.914-0.185-1.965-0.292-3.041-0.292-6.097 0-11.397 3.41-14.098 8.426l-0.042 0.085q-4.5 8.4-9.6 16.82c-1.518 2.432-2.418 5.386-2.418 8.549 0 4.006 1.443 7.675 3.839 10.515l-0.020-0.024 34.58 39.88c2.689 2.856 4.341 6.714 4.341 10.958 0 3.926-1.414 7.522-3.761 10.306l0.020-0.024-14.98 18c-2.912 3.513-7.276 5.733-12.159 5.733-3.3 0-6.363-1.014-8.895-2.748l0.054 0.035-45.38-27.26c-2.332-1.405-5.148-2.235-8.157-2.235-4.085 0-7.812 1.531-10.639 4.049l0.016-0.014c-4.8 4.22-9.8 8.42-14.8 12.44-3.698 2.957-6.047 7.468-6.047 12.527 0 2.046 0.384 4.003 1.084 5.802l-0.037-0.109 18.8 49.5c0.875 1.915 1.385 4.153 1.385 6.511 0 5.844-3.133 10.956-7.811 13.749l-0.073 0.040-20.4 11.82c-2.271 1.312-4.995 2.087-7.901 2.087-5.263 0-9.933-2.541-12.849-6.464l-0.030-0.043-33.28-41.68c-2.623-3.669-6.869-6.032-11.667-6.032-1.921 0-3.754 0.379-5.428 1.066l0.095-0.035s-11.2 4.6-19.6 7.42c-6.412 2.183-10.942 8.152-10.942 15.179 0 0.078 0.001 0.155 0.002 0.232v-0.012l0.8 52.9c0.018 0.288 0.029 0.625 0.029 0.965 0 7.885-5.654 14.449-13.128 15.86l-0.1 0.016-23.18 4c-0.828 0.151-1.781 0.237-2.754 0.237-7.243 0-13.372-4.771-15.415-11.342l-0.031-0.114-17.2-50.1c-2.217-6.351-8.156-10.826-15.14-10.826-0.155 0-0.309 0.002-0.462 0.007l0.023-0.001h-19.6c-0.101-0.002-0.221-0.004-0.341-0.004-7.009 0-12.975 4.468-15.204 10.711l-0.035 0.113-17.2 50.1c-2.074 6.685-8.202 11.457-15.446 11.457-0.973 0-1.926-0.086-2.852-0.251l0.098 0.014-23.18-4c-7.575-1.426-13.229-7.991-13.229-15.875 0-0.339 0.010-0.676 0.031-1.011l-0.002 0.046 0.8-52.9c0.001-0.068 0.002-0.147 0.002-0.227 0-7.042-4.549-13.021-10.869-15.16l-0.113-0.033c-4.6-1.8-14.6-5.62-19.4-7.42-5.6-2-12.2-0.4-17.6 5.82l-33.020 40.68c-2.948 3.933-7.599 6.45-12.838 6.45-2.922 0-5.661-0.783-8.019-2.152l0.077 0.041-20.4-11.82c-4.789-2.795-7.955-7.908-7.955-13.761 0-2.323 0.499-4.53 1.395-6.519l-0.040 0.1 18.8-49.5c0.648-1.679 1.024-3.622 1.024-5.653 0-5.067-2.338-9.588-5.993-12.543l-0.030-0.024c-5-4-10-8.22-14.8-12.44-2.811-2.505-6.538-4.035-10.623-4.035-3.009 0-5.825 0.831-8.229 2.276l0.072-0.040-44.72 27.68c-2.477 1.651-5.521 2.634-8.795 2.634-4.881 0-9.252-2.186-12.186-5.632l-0.019-0.023-14.98-18c-2.327-2.76-3.741-6.356-3.741-10.282 0-4.244 1.652-8.102 4.349-10.966l-0.008 0.008 34.58-39.88c2.42-2.788 3.894-6.453 3.894-10.462 0-3.183-0.93-6.149-2.532-8.642l0.038 0.063q-5.1-8-9.6-16.82c-2.803-5.092-8.134-8.486-14.257-8.486-1.033 0-2.044 0.097-3.024 0.281l0.101-0.016-51.78 10c-1.139 0.29-2.446 0.456-3.791 0.456-6.846 0-12.688-4.3-14.972-10.346l-0.037-0.11-8-22c-0.615-1.637-0.97-3.53-0.97-5.505 0-6.216 3.523-11.61 8.681-14.293l0.089-0.042 46.12-25.66c4.903-2.766 8.16-7.941 8.16-13.877 0-1.191-0.131-2.352-0.38-3.468l0.020 0.106c-1.2-6.4-2.4-12.62-3.4-19.020-1.015-6.942-6.322-12.398-13.101-13.625l-0.099-0.015-52.16-8.4c-7.97-1.010-14.086-7.694-14.2-15.828v-23.452c-0.001-0.058-0.001-0.125-0.001-0.194 0-8.147 6.198-14.847 14.135-15.641l0.066-0.005 52.16-8.4c6.902-1.194 12.234-6.675 13.19-13.556l0.010-0.084c1-6.4 2-12.82 3.4-19.020 0.206-0.968 0.324-2.080 0.324-3.22 0-5.968-3.235-11.18-8.047-13.979l-0.077-0.041-46.18-25.68c-5.248-2.725-8.77-8.119-8.77-14.335 0-1.975 0.356-3.868 1.007-5.616l-0.036 0.111 8-22c2.276-6.163 8.101-10.478 14.933-10.478 1.373 0 2.706 0.174 3.977 0.502l-0.11-0.024 51.78 10c0.914 0.185 1.965 0.292 3.041 0.292 6.097 0 11.397-3.41 14.098-8.426l0.042-0.085q4.5-8.4 9.6-16.82c1.518-2.432 2.418-5.386 2.418-8.549 0-4.006-1.443-7.675-3.839-10.515l0.020 0.024-34.58-39.92c-2.689-2.856-4.341-6.714-4.341-10.958 0-3.926 1.414-7.522 3.761-10.306l-0.020 0.024 14.98-18c2.912-3.513 7.276-5.733 12.159-5.733 3.3 0 6.363 1.014 8.895 2.748l-0.054-0.035 45.38 27.26c2.332 1.405 5.148 2.235 8.157 2.235 4.085 0 7.812-1.531 10.639-4.049l-0.016 0.014c4.8-4.22 9.8-8.42 14.8-12.44 3.698-2.957 6.047-7.468 6.047-12.527 0-2.046-0.384-4.003-1.084-5.802l0.037 0.109-18.8-49.5c-0.849-1.889-1.343-4.095-1.343-6.417 0-5.868 3.159-10.998 7.869-13.783l0.074-0.041 20.4-11.82c2.271-1.312 4.995-2.087 7.901-2.087 5.263 0 9.933 2.541 12.849 6.464l0.030 0.043 33.58 41.28c4.2 5.2 11 7.4 16.4 5.2 6.8-2.8 11.4-4.4 19.8-7.22 6.433-2.171 10.982-8.151 10.982-15.193 0-0.080-0.001-0.16-0.002-0.239v0.012l-0.8-52.9c-0.018-0.288-0.029-0.625-0.029-0.965 0-7.885 5.654-14.449 13.128-15.86l0.1-0.016 23.18-4c0.828-0.151 1.781-0.237 2.754-0.237 7.243 0 13.372 4.771 15.415 11.342l0.031 0.114 17.2 50c2.217 6.351 8.156 10.826 15.14 10.826 0.155 0 0.309-0.002 0.462-0.007l-0.023 0.001h19.6c0.101 0.002 0.221 0.004 0.341 0.004 7.009 0 12.975-4.468 15.204-10.711l0.035-0.113 17.2-50c2.074-6.685 8.202-11.457 15.446-11.457 0.973 0 1.926 0.086 2.852 0.251l-0.098-0.014 23.18 4c7.575 1.426 13.229 7.991 13.229 15.875 0 0.339-0.010 0.676-0.031 1.011l0.002-0.046-0.8 52.9c-0.001 0.068-0.002 0.147-0.002 0.227 0 7.042 4.549 13.021 10.869 15.16l0.113 0.033c8.4 2.82 14 5.020 19.2 7.020s11.6 2 16.6-4.2l34-41.88c2.947-3.96 7.613-6.497 12.872-6.497 2.941 0 5.696 0.793 8.064 2.178l-0.076-0.041 20.4 11.82c4.803 2.786 7.982 7.904 7.982 13.765 0 2.345-0.509 4.571-1.422 6.574l0.041-0.099-18.8 49.5c-0.647 1.68-1.022 3.624-1.022 5.656 0 5.072 2.336 9.598 5.992 12.561l0.030 0.024c5 4 10 8.2 14.8 12.42 2.811 2.505 6.538 4.035 10.623 4.035 3.009 0 5.825-0.831 8.229-2.276l-0.072 0.040 45.22-27.34c2.477-1.651 5.521-2.634 8.795-2.634 4.881 0 9.252 2.186 12.186 5.632l0.019 0.023 14.98 18c2.327 2.76 3.741 6.356 3.741 10.282 0 4.244-1.652 8.102-4.349 10.966l0.008-0.008-34.58 39.88c-2.42 2.788-3.894 6.453-3.894 10.462 0 3.183 0.93 6.149 2.532 8.642l-0.038-0.063q5.1 8.1 9.6 16.82c2.803 5.092 8.134 8.486 14.257 8.486 1.033 0 2.044-0.097 3.024-0.281l-0.101 0.016 51.78-10c1.139-0.29 2.446-0.456 3.791-0.456 6.846 0 12.688 4.3 14.972 10.346l0.037 0.11 8 22c0.615 1.637 0.97 3.53 0.97 5.505 0 6.216-3.523 11.61-8.681 14.293l-0.089 0.042-46.18 25.64c-4.903 2.766-8.16 7.941-8.16 13.877 0 1.191 0.131 2.352 0.38 3.468l-0.020-0.106c1.2 6.4 2.4 12.62 3.4 19.020 1.015 6.942 6.322 12.398 13.101 13.625l0.099 0.015 52.16 8.4c7.97 1.010 14.086 7.694 14.2 15.828v23.492c-0.466 8.033-6.613 14.497-14.461 15.452l-0.079 0.008zM512 736c0.036 0 0.080 0 0.123 0 133.49 0 245.741-90.934 278.189-214.236l0.448-2.004c0.607-2.33 0.955-5.004 0.955-7.76 0-17.673-14.327-32-32-32-0.005 0-0.011 0-0.016 0h-210.479c-0.001 0-0.003 0-0.004 0-11.855 0-22.204 6.447-27.734 16.025l-0.082 0.155-104.2 183.42c-2.633 4.548-4.187 10.005-4.187 15.825 0 14.789 10.033 27.235 23.663 30.903l0.224 0.051c22.376 6.11 48.067 9.62 74.579 9.62 0.183 0 0.366 0 0.55-0.001h-0.028zM224 448c0 0.080 0 0.174 0 0.268 0 80.984 33.426 154.161 87.233 206.487l0.067 0.065c5.779 5.723 13.733 9.259 22.513 9.259 11.863 0 22.218-6.455 27.744-16.044l0.082-0.155 104.48-183.88c2.649-4.559 4.213-10.032 4.213-15.87s-1.564-11.311-4.295-16.024l0.082 0.154-105.34-183.4c-5.626-9.673-15.943-16.071-27.754-16.071-8.826 0-16.817 3.573-22.607 9.352l0.001-0.001c-53.35 52.295-86.42 125.107-86.42 205.642 0 0.076 0 0.153 0 0.229v-0.012zM512 160c-0.223-0.001-0.487-0.001-0.751-0.001-26.894 0-52.943 3.613-77.69 10.381l2.061-0.48c-13.8 3.757-23.78 16.176-23.78 30.926 0 5.872 1.582 11.375 4.342 16.106l-0.082-0.152 105.16 183.1c5.636 9.633 15.931 16 27.713 16 0.017 0 0.033 0 0.050 0h210.777c17.671-0.003 31.995-14.329 31.995-32 0-2.756-0.348-5.43-1.003-7.982l0.048 0.222c-32.954-125.248-145.184-216.12-278.638-216.12-0.071 0-0.142 0-0.213 0h0.011z" />
<glyph unicode="&#xebd2;" glyph-name="color-palette-outline" data-tags="color-palette-outline" d="M352 544c0-35.346-28.654-64-64-64s-64 28.654-64 64c0 35.346 28.654 64 64 64s64-28.654 64-64zM368 338c0-35.346-28.654-64-64-64s-64 28.654-64 64c0 35.346 28.654 64 64 64s64-28.654 64-64zM512 672c0-35.346-28.654-64-64-64s-64 28.654-64 64c0 35.346 28.654 64 64 64s64-28.654 64-64zM608 226c0-53.019-42.981-96-96-96s-96 42.981-96 96c0 53.019 42.981 96 96 96s96-42.981 96-96zM720 672c0-35.346-28.654-64-64-64s-64 28.654-64 64c0 35.346 28.654 64 64 64s64-28.654 64-64z" />
<glyph unicode="&#xebd3;" glyph-name="color-wand-outline" data-tags="color-wand-outline" d="M356.76 603.24v0c-11.454-11.452-18.539-27.274-18.539-44.75s7.085-33.298 18.538-44.75l89.74-89.74 89.5 89.5-89.74 89.74c-11.452 11.454-27.274 18.539-44.75 18.539s-33.298-7.085-44.75-18.538v0zM96 576h96M180.36 779.64l67.88-67.88M384 864v-96M587.64 779.64l-67.88-67.88M248.24 440.24l-67.88-67.88" />
<glyph unicode="&#xebd4;" glyph-name="compass-outline" data-tags="compass-outline" d="M701.34 658.14l-234.4-93.76c-32.634-13.293-58.026-38.686-71.011-70.465l-0.309-0.855-93.76-234.4c-0.725-1.76-1.146-3.804-1.146-5.946 0-8.837 7.163-16 16-16 2.142 0 4.185 0.421 6.053 1.184l-0.107-0.039 234.4 93.76c32.634 13.293 58.026 38.686 71.011 70.465l0.309 0.855 93.76 234.4c0.725 1.76 1.146 3.804 1.146 5.946 0 8.837-7.163 16-16 16-2.142 0-4.185-0.421-6.053-1.184l0.107 0.039zM512 400c-26.51 0-48 21.49-48 48s21.49 48 48 48c26.51 0 48-21.49 48-48v0c0-26.51-21.49-48-48-48v0z" />
<glyph unicode="&#xebd7;" glyph-name="contrast-outline" data-tags="contrast-outline" d="M512 32c-229.76 0-416 186.24-416 416s186.24 416 416 416z" />
<glyph unicode="&#xebd9;" glyph-name="create-outline" data-tags="create-outline" d="M919.88 853.5c-5.897 6.462-14.354 10.501-23.755 10.501-8.856 0-16.875-3.584-22.686-9.381l0.001 0.001-24.74-24.62c-2.893-2.895-4.683-6.894-4.683-11.31s1.789-8.415 4.683-11.31v0l22.68-22.64c2.898-2.911 6.909-4.713 11.34-4.713s8.442 1.801 11.339 4.712l0.001 0.001 24.12 24c12.2 12.18 13.34 32.020 1.7 44.76zM798.68 780l-361.040-360.4c-2.129-2.12-3.729-4.769-4.588-7.733l-0.032-0.127-16.7-49.74c-0.205-0.665-0.322-1.43-0.322-2.222 0-4.319 3.501-7.82 7.82-7.82 0.792 0 1.557 0.118 2.278 0.337l-0.055-0.014 49.7 16.7c3.091 0.891 5.74 2.491 7.859 4.619l0.001 0.001 360.4 361.080c3.217 3.25 5.205 7.723 5.205 12.66s-1.988 9.41-5.206 12.662l0.002-0.002-19.9 20c-3.256 3.247-7.748 5.254-12.71 5.254s-9.454-2.008-12.71-5.255v0z" />
<glyph unicode="&#xebdd;" glyph-name="desktop-outline" data-tags="desktop-outline" d="M608 64l-16 128h-160l-16-128h192zM64 352v-96c0.102-35.305 28.695-63.898 63.99-64h768.010c35.305 0.102 63.898 28.695 64 63.99v96.010zM512 224c-17.673 0-32 14.327-32 32s14.327 32 32 32c17.673 0 32-14.327 32-32v0c0-17.673-14.327-32-32-32v0z" />
<glyph unicode="&#xebdf;" glyph-name="dice-outline" data-tags="dice-outline" d="M560 656c0-17.673-21.49-32-48-32s-48 14.327-48 32c0 17.673 21.49 32 48 32s48-14.327 48-32zM448 368c0-26.51-14.327-48-32-48s-32 21.49-32 48c0 26.51 14.327 48 32 48s32-21.49 32-48zM256 304c0-26.51-14.327-48-32-48s-32 21.49-32 48c0 26.51 14.327 48 32 48s32-21.49 32-48zM640 368c0-26.51-14.327-48-32-48s-32 21.49-32 48c0 26.51 14.327 48 32 48s32-21.49 32-48zM832 480c0-26.51-14.327-48-32-48s-32 21.49-32 48c0 26.51 14.327 48 32 48s32-21.49 32-48zM640 192c0-26.51-14.327-48-32-48s-32 21.49-32 48c0 26.51 14.327 48 32 48s32-21.49 32-48zM832 304c0-26.51-14.327-48-32-48s-32 21.49-32 48c0 26.51 14.327 48 32 48s32-21.49 32-48z" />
<glyph unicode="&#xebe0;" glyph-name="disc-outline" data-tags="disc-outline" d="M576 448c0-35.346-28.654-64-64-64s-64 28.654-64 64c0 35.346 28.654 64 64 64s64-28.654 64-64z" />
<glyph unicode="&#xebe2;" glyph-name="document-lock-outline" data-tags="document-lock-outline" d="M608 128h-192c-35.346 0-64 28.654-64 64v0 96c0 35.346 28.654 64 64 64v0h192c35.346 0 64-28.654 64-64v0-96c0-35.346-28.654-64-64-64v0z" />
<glyph unicode="&#xebe9;" glyph-name="earth-outline" data-tags="earth-outline" d="M891.14 615.72c-32.12-0.2-28.96-59.46-68.98-31.5-14.86 10.36-24 25.42-42.66 30-16.3 4-33-0.16-49.1-2.94-18.3-3.16-40-4.58-53.88-18.44-13.42-13.34-20.52-31.24-34.8-44.66-27.62-26-39.28-54.38-21.4-91.14 17.2-35.34 53.18-54.52 92-52 38.14 2.54 77.76 24.66 76.66-30.76-0.4-19.6 3.7-33.2 9.72-51.42 5.58-16.8 5.2-33.080 6.48-50.42 2.36-32.4 8.32-68.72 24.4-97.34l30 42.32c3.7 5.24 11.44 12.58 13.28 18.76 3.26 10.94-3.16 29.74-3.9 42s-0.38 24.68-2.26 36.94c-2.64 17.18-12.8 33.28-14.2 50.26-2.58 31.62 3.2 56.86-21.16 83.3-23.52 25.5-58 31.62-90.94 26.44-16.6-2.6-83.42-13.28-56.6 24.66 5.3 7.46 14.56 13.58 20.52 20.68 5.18 6.18 9.68 17.54 15.76 22.36s34 10.36 42 7.9 16.34-14 23.28-19.12c12.213-9.28 26.964-15.878 43.028-18.636l0.592-0.084c27.32-4 84.44 11.88 84 46.92-0.080 16.8-15.68 40.2-21.84 55.92zM574.9 327.4c-10.66 44.88-71.64 59.88-104.52 84.22-18.9 14-35.72 35.62-60.54 37.38-11.44 0.82-21.020-1.66-32.36 1.28-10.4 2.68-18.56 8.28-29.64 6.82-20.7-2.72-33.76-24.84-56-21.84-21.1 2.84-42.84 27.52-47.64 47.62-6.16 25.84 14.28 34.22 36.18 36.52 9.14 0.96 19.4 2 28.18-1.34 11.56-4.3 17.020-15.62 27.4-21.34 19.46-10.66 23.4 6.38 20.42 23.66-4.46 25.88-9.66 36.44 13.42 54.24 16 12.28 29.68 21.16 27.12 43.22-1.52 12.96-8.62 18.82-2 31.72 5.020 9.82 18.8 18.68 27.78 24.54 23.18 15.12 99.3 14 68.2 56.32-9.14 12.42-26 34.62-42 37.66-20 3.78-28.88-18.54-42.82-28.38-14.4-10.18-42.44-21.74-56.86-6-19.4 21.18 12.86 28.14 20 42.92s-16.54 42.72-29.22 49.8l-59.62-66.86c-0.608-3.774-0.955-8.124-0.955-12.556 0-19.382 6.64-37.212 17.769-51.341l-0.135 0.177c11.86-15.26 30.74-20.16 31.6-41 0.84-20-2.28-30.24-15.36-44.3-5.66-6-9.66-14.52-15.42-20.14-7.060-6.86-4.44-4.76-15.46-6.64-20.72-3.5-38.36-8.9-58.38-14.42-33.36-9.22-36.44 45.28-51.64 66.66l-50-40.38c-0.54-6.62 8.2-18.8 10.58-26 13.66-41.14 41.22-72.96 59.020-112.32 18.74-41.68 69.060-30.12 91.28-66.64 19.72-32.4-1.34-73.42 13.42-107.34 10.72-24.62 36-30 53.44-48 17.82-18.18 17.44-43.060 20.16-66.72 3.514-31.448 8.753-59.496 15.834-86.801l-0.934 4.241c2.42-9.38 4.64-21.78 11.060-29.52 4.4-5.32 19.5-9.9 13.4-11.66 8.52-1.4 23.7-9.36 30.8-3.52 9.36 7.68 6.86 31.32 8.48 42 4.86 31.8 20.78 62.9 42.26 86.7 21.22 23.48 50.3 39.38 68.22 66 17.46 25.96 22.72 60.98 15.48 91.36zM508.12 274.76c-12-21.42-38.72-35.76-55.9-52.78-4.66-4.62-14.58-20.62-20.42-17.16-4.18 2.48-5.6 23.24-7.14 28-8.302 24.567-23.42 45.006-43.096 59.669l-0.324 0.231c-6.26 4.74-21.78 10.9-25.36 17.4-4 7.060-0.4 23.72-0.26 31.4 0.22 11.2-4.88 29.82-2.12 40 3.2 11.74-2.96 4.66 7.54 6.98 5.54 1.24 28.42-2.78 35.32-4.22 10.96-2.28 17-9.1 25.64-16 22.72-18.22 47.74-32.32 73.2-46.28 19.72-10.92 25.52-24.74 12.92-47.24zM368.92 825.82c9.48-9.26 18.4-20.22 32.54-21.14 13.38-0.9 26 6.34 37.68-2.76 12.96-10 22.3-22.66 39.5-25.78 16.64-3.020 34.26 6.7 38.38 23.72 4 16.22-4.62 33.86-5.14 50.14 0 2.26 1.22 12.3-0.34 14-1.16 1.28-10.84-0.16-12.32-0.2q-16.26-0.48-32.44-2.24c-42.319-4.683-81.004-15.020-117.073-30.322l2.713 1.022c4.86-3.36 10.96-4.7 16.5-6.44zM712.8 713.46c16.98 0 34.22 7.6 28.74 27.24-4.6 16.46-12.44 34.32-31.52 25.44-12.14-5.64-29.34-20-30.76-34.24-1.62-16.16 22.22-18.44 33.54-18.44zM699.24 627.52c17.34-10.38 43.060-5.5 56.14 9.32 10.22 11.6 16.24 31.74 34.62 31.72 0.019 0 0.042 0 0.064 0 8.405 0 16.023-3.366 21.581-8.825l-0.005 0.004c7.6-7.86 6.1-15.24 7.72-25.080 3.62-22.1 27.32-1.26 33.5 7.3 4 5.58 9.42 13.86 7.6 21.12-1.68 6.78-9.6 14-13.12 20.22-10.28 18-18.74 38.94-34.14 53.48-14.82 14-33.040 12.38-47.1-2.16-11.52-12-24.9-21.5-32.78-36.1-5.56-10.26-11.82-15.16-23.080-17.82-6.2-1.46-13.28-2-18.48-6.16-14.48-11.4-6.24-38.78 7.48-47.020z" />
<glyph unicode="&#xebed;" glyph-name="ellipsis-horizontal-circle-outline" data-tags="ellipsis-horizontal-circle-outline" d="M564 448c0-28.719-23.281-52-52-52s-52 23.281-52 52c0 28.719 23.281 52 52 52s52-23.281 52-52zM744 448c0-28.719-23.281-52-52-52s-52 23.281-52 52c0 28.719 23.281 52 52 52s52-23.281 52-52zM384 448c0-28.719-23.281-52-52-52s-52 23.281-52 52c0 28.719 23.281 52 52 52s52-23.281 52-52z" />
<glyph unicode="&#xebef;" glyph-name="ellipsis-vertical-circle-outline" data-tags="ellipsis-vertical-circle-outline" d="M564 448c0-28.719-23.281-52-52-52s-52 23.281-52 52c0 28.719 23.281 52 52 52s52-23.281 52-52zM564 268c0-28.719-23.281-52-52-52s-52 23.281-52 52c0 28.719 23.281 52 52 52s52-23.281 52-52zM564 628c0-28.719-23.281-52-52-52s-52 23.281-52 52c0 28.719 23.281 52 52 52s52-23.281 52-52z" />
<glyph unicode="&#xebf5;" glyph-name="caret-down-circle-outline" data-tags="caret-down-circle-outline" d="M684.86 483.54l-148.26-178.18c-5.911-7.070-14.734-11.534-24.6-11.534s-18.689 4.465-24.559 11.484l-0.041 0.050-148.26 178.18c-4.601 5.503-7.395 12.655-7.395 20.46 0 17.664 14.313 31.986 31.974 32h296.561c17.663-0.014 31.975-14.336 31.975-32 0-7.805-2.794-14.957-7.436-20.511l0.041 0.051z" />
<glyph unicode="&#xebf6;" glyph-name="caret-down-outline" data-tags="caret-down-outline" d="M196 579.88l279.56-326.24c8.855-10.285 21.892-16.757 36.44-16.757s27.585 6.472 36.387 16.694l0.053 0.063 279.56 326.24c26.68 31.14 4.56 79.24-36.44 79.24h-559.2c-41 0-63.12-48.1-36.36-79.24z" />
<glyph unicode="&#xebf7;" glyph-name="caret-forward-circle-outline" data-tags="caret-forward-circle-outline" d="M476.46 275.14l178.18 148.26c7.070 5.911 11.534 14.734 11.534 24.6s-4.465 18.689-11.484 24.559l-0.050 0.041-178.18 148.26c-5.503 4.601-12.655 7.395-20.46 7.395-17.664 0-31.986-14.313-32-31.974v-296.561c0.014-17.663 14.336-31.975 32-31.975 7.805 0 14.957 2.794 20.511 7.436l-0.051-0.041z" />
<glyph unicode="&#xebf8;" glyph-name="caret-forward-outline" data-tags="caret-forward-outline" d="M380.12 132l326.24 279.56c10.285 8.855 16.757 21.892 16.757 36.44s-6.472 27.585-16.694 36.387l-0.063 0.053-326.24 279.56c-31.14 26.68-79.24 4.56-79.24-36.44v-559.2c0-41 48.1-63.12 79.24-36.36z" />
<glyph unicode="&#xebf9;" glyph-name="caret-up-circle-outline" data-tags="caret-up-circle-outline" d="M684.86 412.46l-148.26 178.18c-5.911 7.070-14.734 11.534-24.6 11.534s-18.689-4.465-24.559-11.484l-0.041-0.050-148.26-178.18c-4.601-5.503-7.395-12.655-7.395-20.46 0-17.664 14.313-31.986 31.974-32h296.561c17.663 0.014 31.975 14.336 31.975 32 0 7.805-2.794 14.957-7.436 20.511l0.041-0.051z" />
<glyph unicode="&#xebfa;" glyph-name="caret-up-outline" data-tags="caret-up-outline" d="M828 316.12l-279.56 326.24c-8.855 10.285-21.892 16.757-36.44 16.757s-27.585-6.472-36.387-16.694l-0.053-0.063-279.56-326.24c-26.68-31.14-4.56-79.24 36.44-79.24h559.2c41 0 63.12 48.1 36.36 79.24z" />
<glyph unicode="&#xebfe;" glyph-name="chatbox-ellipses-outline" data-tags="chatbox-ellipses-outline" d="M384 528c0-35.346-28.654-64-64-64s-64 28.654-64 64c0 35.346 28.654 64 64 64s64-28.654 64-64zM576 528c0-35.346-28.654-64-64-64s-64 28.654-64 64c0 35.346 28.654 64 64 64s64-28.654 64-64zM768 528c0-35.346-28.654-64-64-64s-64 28.654-64 64c0 35.346 28.654 64 64 64s64-28.654 64-64z" />
<glyph unicode="&#xec00;" glyph-name="chatbubble-ellipses-outline" data-tags="chatbubble-ellipses-outline" d="M384 448c0-35.346-28.654-64-64-64s-64 28.654-64 64c0 35.346 28.654 64 64 64s64-28.654 64-64zM576 448c0-35.346-28.654-64-64-64s-64 28.654-64 64c0 35.346 28.654 64 64 64s64-28.654 64-64zM768 448c0-35.346-28.654-64-64-64s-64 28.654-64 64c0 35.346 28.654 64 64 64s64-28.654 64-64z" />
<glyph unicode="&#xec13;" glyph-name="cloud-circle-outline" data-tags="cloud-circle-outline" d="M667.76 478.82c-6.864 1.109-12.211 6.456-13.308 13.228l-0.012 0.092c-13.080 82.3-72.8 131.86-142.44 131.86-64.74 0-107.86-42.44-124.96-87.16-2.039-5.243-6.643-9.076-12.229-9.988l-0.091-0.012c-55.34-8.7-101.64-45.12-102.7-108.6-1.040-63.060 51.020-114.22 114-114.22h265.98c55 0 100 27.44 100 88 0 54.44-44 80.82-84.24 86.8z" />
<glyph unicode="&#xec20;" glyph-name="battery-charging-outline" data-tags="battery-charging-outline" d="M96 315.4v265.2c0.045 32.787 26.613 59.355 59.396 59.4h274.884l48.8 64h-323.68c-68.12-0.080-123.32-55.28-123.4-123.392v-265.208c0.080-68.12 55.28-123.32 123.392-123.4h193.708c-0.233 1.724-0.366 3.716-0.366 5.739 0 3.15 0.323 6.225 0.937 9.193l-0.051-0.292 0.3 1.5 0.42 1.46 13 46.4h-207.94c-32.787 0.045-59.355 26.613-59.4 59.396v0.004zM772.6 704h-197.28c0.215-1.658 0.337-3.575 0.337-5.521 0-3.142-0.319-6.21-0.927-9.172l0.050 0.293-0.3-1.48-0.42-1.46-13.080-46.66h211.62c32.787-0.045 59.355-26.613 59.4-59.396v-265.204c-0.045-32.787-26.613-59.355-59.396-59.4h-278.604l-48.84-64h327.44c68.12 0.080 123.32 55.28 123.4 123.392v265.208c-0.080 68.12-55.28 123.32-123.392 123.4h-0.008zM325.3 371.68c-0.003 0-0.006 0-0.010 0-18.6 0-34.767 10.419-42.982 25.739l-0.128 0.261c-3.688 6.799-5.857 14.887-5.857 23.481 0 10.525 3.252 20.291 8.806 28.347l-0.109-0.168 0.62 0.92 0.66 0.88 108.94 142.86h-215.86c-22.091 0-40-17.909-40-40v0-212c0-22.091 17.909-40 40-40v0h196.84l19.56 69.72zM552.14 398.22l54.14 70.98c0.728 1.090 1.265 2.374 1.53 3.755l0.010 0.065c0.076 0.38 0.133 0.833 0.159 1.294l0.001 0.026c0.015 0.202 0.023 0.438 0.023 0.676 0 0.673-0.067 1.331-0.194 1.968l0.011-0.064c-0.254 1.321-0.727 2.496-1.385 3.542l0.025-0.042c-0.454 0.721-0.97 1.345-1.555 1.895l-0.005 0.005c-0.287 0.272-0.6 0.522-0.934 0.744l-0.026 0.016c-0.637 0.456-1.373 0.83-2.163 1.084l-0.057 0.016c-0.773 0.254-1.663 0.4-2.586 0.4-0.012 0-0.024 0-0.036 0h-123.238l24.24 86.42 6.46 23 12.42 44.32 1.020 3.68 15.58 55.52c0.059 0.328 0.095 0.708 0.1 1.096v0.004c0 0.12 0 0.22 0 0.32s0 0.52-0.1 0.76 0 0.18 0 0.28c-0.090 0.344-0.206 0.643-0.352 0.925l0.012-0.025c-0.175 0.3-0.347 0.555-0.533 0.798l0.013-0.018-0.18 0.2c-0.155 0.162-0.318 0.312-0.49 0.452l-0.21 0.168c-0.224 0.164-0.479 0.323-0.746 0.464l-0.034 0.016c-0.234 0.113-0.508 0.209-0.793 0.275l-0.027 0.005h-1.18c-0.135 0.014-0.292 0.022-0.45 0.022s-0.315-0.008-0.469-0.024l0.019 0.002c-0.319-0.074-0.599-0.177-0.862-0.31l0.022 0.010-0.26-0.14-0.6-0.42-0.22-0.2c-0.268-0.243-0.505-0.512-0.71-0.805l-0.010-0.015-62.28-81.7-19.7-25.66-127.42-167.1c-0.305-0.456-0.599-0.981-0.851-1.529l-0.029-0.071c-0.296-0.627-0.539-1.357-0.69-2.119l-0.010-0.061c-0.119-0.561-0.187-1.206-0.187-1.866 0-0.251 0.010-0.5 0.029-0.746l-0.002 0.033c0.145-3.052 1.675-5.719 3.973-7.401l0.027-0.019c0.304-0.206 0.658-0.412 1.025-0.595l0.055-0.025c1.097-0.543 2.388-0.86 3.753-0.86 0.009 0 0.019 0 0.028 0h123.239l-59.64-212.84c-0.014-0.168-0.022-0.363-0.022-0.56s0.008-0.392 0.023-0.585l-0.002 0.025s0-0.2 0-0.3c0.021-0.281 0.064-0.541 0.127-0.792l-0.007 0.032c-0.005-0.042-0.008-0.091-0.008-0.14s0.003-0.098 0.009-0.146l-0.001 0.006c0.090-0.344 0.206-0.643 0.352-0.925l-0.012 0.025c0.174-0.291 0.346-0.539 0.532-0.775l-0.012 0.015 0.18-0.2 0.5-0.48c0.077-0.044 0.143-0.097 0.199-0.159l0.001-0.001c0.226-0.168 0.482-0.322 0.753-0.449l0.027-0.011c0.226-0.101 0.499-0.197 0.781-0.271l0.039-0.009h0.26c0.099-0.009 0.214-0.015 0.33-0.015s0.231 0.005 0.345 0.016l-0.015-0.001h0.26c0.325 0.012 0.634 0.055 0.932 0.126l-0.032-0.006c0.314 0.086 0.586 0.195 0.842 0.331l-0.022-0.011 0.26 0.14 0.6 0.42 0.22 0.18c0.268 0.243 0.505 0.512 0.71 0.805l0.010 0.015 46.64 60.9 35.060 46zM639 446.14l-0.92-1.2-109.060-142.94h219.6c22.091 0 40 17.909 40 40v0 212c0 22.091-17.909 40-40 40v0h-200.52l-19.48-69.46h70.48c0.018 0 0.039 0 0.060 0 18.41 0 34.434-10.216 42.713-25.287l0.127-0.253c3.864-6.964 6.139-15.272 6.139-24.112 0-10.213-3.037-19.718-8.257-27.659l0.118 0.191zM960 554.66c-17.673 0-32-14.327-32-32v0-149.32c0-17.673 14.327-32 32-32s32 14.327 32 32v0 149.32c0 17.673-14.327 32-32 32v0z" />
<glyph unicode="&#xec22;" glyph-name="battery-full-outline" data-tags="battery-full-outline" d="M179.38 562.14h569.26c4.418 0 8-3.582 8-8v-212.28c0-4.418-3.582-8-8-8h-569.26c-4.418 0-8 3.582-8 8v212.28c0 4.418 3.582 8 8 8z" />
<glyph unicode="&#xec23;" glyph-name="battery-half-outline" data-tags="battery-half-outline" d="M179.38 562.14h292.62c4.418 0 8-3.582 8-8v-212.26c0-4.418-3.582-8-8-8h-292.62c-4.418 0-8 3.582-8 8v212.26c0 4.418 3.582 8 8 8z" />
<glyph unicode="&#xec27;" glyph-name="bicycle-outline" data-tags="bicycle-outline" d="M640 688c0.066 0 0.144 0 0.221 0 35.225 0 63.78 28.555 63.78 63.78 0 0.148-0.001 0.295-0.002 0.443v-0.023c0.002 0.209 0.004 0.455 0.004 0.702 0 34.849-28.251 63.1-63.1 63.1-0.177 0-0.354-0.001-0.531-0.002h0.027c-0.059 0-0.13 0-0.2 0-35.346 0-64-28.654-64-64 0-35.276 28.54-63.886 63.789-64h0.011z" />
<glyph unicode="&#xec29;" glyph-name="boat-outline" data-tags="boat-outline" d="M832 13.72c-0.002 5.148-2.847 9.631-7.050 11.964l-0.070 0.036c-54.16 29.1-103.54 73.64-125.26 96-3.667 3.841-8.828 6.228-14.546 6.228-4.048 0-7.817-1.197-10.971-3.256l0.077 0.047c-100.66-64.84-223.22-64.88-323.9-0.1-3.092 2.023-6.879 3.227-10.947 3.227-5.786 0-11.004-2.435-14.684-6.337l-0.009-0.010c-21.54-22.56-70.38-66.6-124.86-95.5-4.308-2.216-7.31-6.441-7.776-11.403l-0.004-0.057c-0.027-0.317-0.042-0.687-0.042-1.060 0-7.434 6.026-13.46 13.46-13.46 0.856 0 1.694 0.080 2.505 0.233l-0.084-0.013c41.7 8.36 82 27.36 120.4 47.66 2.353 1.264 5.148 2.006 8.116 2.006 2.877 0 5.59-0.697 7.981-1.932l-0.097 0.046c48.841-25.379 106.642-40.264 167.919-40.264 61.246 0 119.020 14.87 169.907 41.196l-2.066-0.972c2.32 1.201 5.065 1.905 7.974 1.905 3.001 0 5.827-0.749 8.301-2.071l-0.095 0.046c38.2-20 78.44-39.18 120-47.6 0.74-0.145 1.591-0.227 2.462-0.227 7.423 0 13.44 6.017 13.44 13.44 0 0.073-0.001 0.146-0.002 0.218v-0.011z" />
<glyph unicode="&#xec2b;" glyph-name="bonfire-outline" data-tags="bonfire-outline" d="M546.76 223.34c-1.62 18.46-17.72 32.88-37.1 32.88-0.075 0.001-0.164 0.001-0.253 0.001-17.368 0-31.961-11.883-36.091-27.963l-0.056-0.258-36.4-176.76c-1.148-4.722-1.824-10.153-1.86-15.736v-0.024c0-39.86 33.36-67.56 74.66-67.56s74.68 27.7 74.68 67.56c-0.024 6.734-0.964 13.239-2.703 19.409l0.123-0.509zM822.1 144.28c-3.52 3.098-7.409 5.969-11.534 8.492l-0.366 0.208-139.060 97.18c-13.54 8.5-28 8.26-38.5-2-5.182-4.939-8.405-11.894-8.405-19.602 0-5.505 1.644-10.626 4.468-14.899l-0.063 0.101 105-138c2.51-3.481 5.136-6.544 7.994-9.374l0.006-0.006c18.2-20.34 58.56-21.46 80.74 0 21.88 21.82 21.62 60.7-0.28 77.9zM926.6 288.24h-140.84c-9.1 0-17.76-6.7-17.76-16.32s5.9-15.7 13.84-18.32l132.86-41.1c19.3-4.5 45.3 12.7 45.3 34.18 0 27.32-15.2 41.56-33.4 41.56zM256.44 272c0 10-9.1 16.32-18.9 16.32h-140.84c-17.74 0-32.7-19.16-32.7-40.64s25.24-39.68 44.6-35.18l134.86 41.1c8.78 2.62 12.98 8.4 12.98 18.4zM353.1 250l-139.1-96.76c-4.55-2.584-8.482-5.466-12.046-8.742l0.046 0.042c-10.346-9.642-16.796-23.348-16.796-38.56s6.45-28.918 16.765-38.531l0.031-0.029c10.504-9.937 24.719-16.046 40.36-16.046s29.856 6.109 40.387 16.072l-0.027-0.026c2.924 2.801 5.555 5.863 7.869 9.163l0.131 0.197 105.080 137.22c7 11.16 5.84 24.98-4 34.12-5.344 4.994-12.545 8.061-20.461 8.061-6.893 0-13.243-2.325-18.308-6.233l0.070 0.052z" />
<glyph unicode="&#xec2f;" glyph-name="bowling-ball-outline" data-tags="bowling-ball-outline" d="M624 560c0-26.51-21.49-48-48-48s-48 21.49-48 48c0 26.51 21.49 48 48 48s48-21.49 48-48zM640 704c0-26.51-21.49-48-48-48s-48 21.49-48 48c0 26.51 21.49 48 48 48s48-21.49 48-48zM768 624c0-26.51-21.49-48-48-48s-48 21.49-48 48c0 26.51 21.49 48 48 48s48-21.49 48-48z" />
<glyph unicode="&#xec31;" glyph-name="browsers-outline" data-tags="browsers-outline" d="M795.64 832h-567.28c-72.98 0-132.36-60.3-132.36-134.4v-89.6h32c0 32 32 64 64 64h640c32 0 64-32 64-64h32v89.6c0 74.1-59.38 134.4-132.36 134.4z" />
<glyph unicode="&#xec34;" glyph-name="build-outline" data-tags="build-outline" d="M224 128c0-17.673-14.327-32-32-32s-32 14.327-32 32c0 17.673 14.327 32 32 32s32-14.327 32-32z" />
<glyph unicode="&#xec37;" glyph-name="business-outline" data-tags="business-outline" d="M196.16 96.26c-1.246-0.172-2.687-0.27-4.15-0.27-17.673 0-32 14.327-32 32s14.327 32 32 32c17.673 0 32-14.327 32-32 0-1.463-0.098-2.903-0.288-4.314l0.018 0.165c-1.935-14.386-13.194-25.645-27.415-27.562l-0.165-0.018zM196.16 256.26c-1.246-0.172-2.687-0.27-4.15-0.27-17.673 0-32 14.327-32 32s14.327 32 32 32c17.673 0 32-14.327 32-32 0-1.463-0.098-2.903-0.288-4.314l0.018 0.165c-1.935-14.386-13.194-25.645-27.415-27.562l-0.165-0.018zM196.16 416.26c-1.246-0.172-2.687-0.27-4.15-0.27-17.673 0-32 14.327-32 32s14.327 32 32 32c17.673 0 32-14.327 32-32 0-1.463-0.098-2.903-0.288-4.314l0.018 0.165c-1.935-14.386-13.194-25.645-27.415-27.562l-0.165-0.018zM196.16 576.26c-1.246-0.172-2.687-0.27-4.15-0.27-17.673 0-32 14.327-32 32s14.327 32 32 32c17.673 0 32-14.327 32-32 0-1.463-0.098-2.903-0.288-4.314l0.018 0.165c-1.935-14.386-13.194-25.645-27.415-27.562l-0.165-0.018zM196.16 736.26c-1.246-0.172-2.687-0.27-4.15-0.27-17.673 0-32 14.327-32 32s14.327 32 32 32c17.673 0 32-14.327 32-32 0-1.463-0.098-2.903-0.288-4.314l0.018 0.165c-1.935-14.386-13.194-25.645-27.415-27.562l-0.165-0.018zM356.16 256.26c-1.246-0.172-2.687-0.27-4.15-0.27-17.673 0-32 14.327-32 32s14.327 32 32 32c17.673 0 32-14.327 32-32 0-1.463-0.098-2.903-0.288-4.314l0.018 0.165c-1.935-14.386-13.194-25.645-27.415-27.562l-0.165-0.018zM356.16 416.26c-1.246-0.172-2.687-0.27-4.15-0.27-17.673 0-32 14.327-32 32s14.327 32 32 32c17.673 0 32-14.327 32-32 0-1.463-0.098-2.903-0.288-4.314l0.018 0.165c-1.935-14.386-13.194-25.645-27.415-27.562l-0.165-0.018zM356.16 576.26c-1.246-0.172-2.687-0.27-4.15-0.27-17.673 0-32 14.327-32 32s14.327 32 32 32c17.673 0 32-14.327 32-32 0-1.463-0.098-2.903-0.288-4.314l0.018 0.165c-1.935-14.386-13.194-25.645-27.415-27.562l-0.165-0.018zM356.16 736.26c-1.246-0.172-2.687-0.27-4.15-0.27-17.673 0-32 14.327-32 32s14.327 32 32 32c17.673 0 32-14.327 32-32 0-1.463-0.098-2.903-0.288-4.314l0.018 0.165c-1.935-14.386-13.194-25.645-27.415-27.562l-0.165-0.018zM516.16 96.26c-1.246-0.172-2.687-0.27-4.15-0.27-17.673 0-32 14.327-32 32s14.327 32 32 32c17.673 0 32-14.327 32-32 0-1.463-0.098-2.903-0.288-4.314l0.018 0.165c-1.935-14.386-13.194-25.645-27.415-27.562l-0.165-0.018zM516.16 256.26c-1.246-0.172-2.687-0.27-4.15-0.27-17.673 0-32 14.327-32 32s14.327 32 32 32c17.673 0 32-14.327 32-32 0-1.463-0.098-2.903-0.288-4.314l0.018 0.165c-1.935-14.386-13.194-25.645-27.415-27.562l-0.165-0.018zM516.16 416.26c-1.246-0.172-2.687-0.27-4.15-0.27-17.673 0-32 14.327-32 32s14.327 32 32 32c17.673 0 32-14.327 32-32 0-1.463-0.098-2.903-0.288-4.314l0.018 0.165c-1.935-14.386-13.194-25.645-27.415-27.562l-0.165-0.018zM534.557 630.574c12.52-12.52 12.571-32.769 0.113-45.227s-32.706-12.407-45.227 0.113c-12.52 12.52-12.571 32.769-0.113 45.227s32.706 12.407 45.227-0.113zM516.16 736.26c-1.246-0.172-2.687-0.27-4.15-0.27-17.673 0-32 14.327-32 32s14.327 32 32 32c17.673 0 32-14.327 32-32 0-1.463-0.098-2.903-0.288-4.314l0.018 0.165c-1.935-14.386-13.194-25.645-27.415-27.562l-0.165-0.018zM800 160c-17.673 0-32-14.327-32-32s14.327-32 32-32c17.673 0 32 14.327 32 32v0c0 17.673-14.327 32-32 32v0zM800 320c-17.673 0-32-14.327-32-32s14.327-32 32-32c17.673 0 32 14.327 32 32v0c0 17.673-14.327 32-32 32v0zM800 480c-17.673 0-32-14.327-32-32s14.327-32 32-32c17.673 0 32 14.327 32 32v0c0 17.673-14.327 32-32 32v0zM672 160c-17.673 0-32-14.327-32-32s14.327-32 32-32c17.673 0 32 14.327 32 32v0c0 17.673-14.327 32-32 32v0zM672 320c-17.673 0-32-14.327-32-32s14.327-32 32-32c17.673 0 32 14.327 32 32v0c0 17.673-14.327 32-32 32v0zM672 480c-17.673 0-32-14.327-32-32s14.327-32 32-32c17.673 0 32 14.327 32 32v0c0 17.673-14.327 32-32 32v0z" />
<glyph unicode="&#xec39;" glyph-name="calculator-outline" data-tags="calculator-outline" d="M384 464c0-26.51-21.49-48-48-48s-48 21.49-48 48c0 26.51 21.49 48 48 48s48-21.49 48-48zM560 464c0-26.51-21.49-48-48-48s-48 21.49-48 48c0 26.51 21.49 48 48 48s48-21.49 48-48zM736 464c0-26.51-21.49-48-48-48s-48 21.49-48 48c0 26.51 21.49 48 48 48s48-21.49 48-48zM384 304c0-26.51-21.49-48-48-48s-48 21.49-48 48c0 26.51 21.49 48 48 48s48-21.49 48-48zM560 304c0-26.51-21.49-48-48-48s-48 21.49-48 48c0 26.51 21.49 48 48 48s48-21.49 48-48zM384 144c0-26.51-21.49-48-48-48s-48 21.49-48 48c0 26.51 21.49 48 48 48s48-21.49 48-48zM560 144c0-26.51-21.49-48-48-48s-48 21.49-48 48c0 26.51 21.49 48 48 48s48-21.49 48-48zM688 352c26.51 0 48-21.49 48-48v-160c0-26.51-21.49-48-48-48s-48 21.49-48 48v160c0 26.51 21.49 48 48 48z" />
<glyph unicode="&#xec3c;" glyph-name="calendar-outline" data-tags="calendar-outline" d="M640 496c0-26.51-21.49-48-48-48s-48 21.49-48 48c0 26.51 21.49 48 48 48s48-21.49 48-48zM800 496c0-26.51-21.49-48-48-48s-48 21.49-48 48c0 26.51 21.49 48 48 48s48-21.49 48-48zM640 336c0-26.51-21.49-48-48-48s-48 21.49-48 48c0 26.51 21.49 48 48 48s48-21.49 48-48zM800 336c0-26.51-21.49-48-48-48s-48 21.49-48 48c0 26.51 21.49 48 48 48s48-21.49 48-48zM320 336c0-26.51-21.49-48-48-48s-48 21.49-48 48c0 26.51 21.49 48 48 48s48-21.49 48-48zM480 336c0-26.51-21.49-48-48-48s-48 21.49-48 48c0 26.51 21.49 48 48 48s48-21.49 48-48zM320 176c0-26.51-21.49-48-48-48s-48 21.49-48 48c0 26.51 21.49 48 48 48s48-21.49 48-48zM480 176c0-26.51-21.49-48-48-48s-48 21.49-48 48c0 26.51 21.49 48 48 48s48-21.49 48-48zM640 176c0-26.51-21.49-48-48-48s-48 21.49-48 48c0 26.51 21.49 48 48 48s48-21.49 48-48z" />
<glyph unicode="&#xec41;" glyph-name="car-sport-outline" data-tags="car-sport-outline" d="M728.94 341.68c-11.82 13.66-50.34 25.060-101.34 32.7s-69.6 9.62-115.2 9.62-66.34-3.28-115.22-9.62-85.58-17.62-101.32-32.7c-23.62-22.88 10.98-48.56 38.14-51.68 26.32-3 78.94-1.9 178.62-1.9s152.3-1.1 178.62 1.9c27.12 3.3 59.24 27.2 37.7 51.68zM863.14 473.9c-0.239 3.282-2.897 5.871-6.188 6h-0.012c-23.62 0.84-47.6-0.84-90.14-13.38-23.001-6.831-43.027-17.13-60.63-30.461l0.47 0.341c-4.56-3.56-2.94-13.18 2.78-14.2 31.691-3.929 68.392-6.181 105.616-6.2h0.024c21.18 0 43.040 6 47.1 24.88 1.174 5.887 1.845 12.656 1.845 19.581 0 4.738-0.314 9.403-0.923 13.975l0.058-0.535zM160.86 473.9c0.239 3.282 2.897 5.871 6.188 6h0.012c23.62 0.84 47.6-0.84 90.14-13.38 23.001-6.831 43.027-17.13 60.63-30.461l-0.47 0.341c4.56-3.56 2.94-13.18-2.78-14.2-31.691-3.929-68.392-6.181-105.616-6.2h-0.024c-21.18 0-43.040 6-47.1 24.88-1.174 5.887-1.845 12.656-1.845 19.581 0 4.738 0.314 9.403 0.923 13.975l-0.058-0.535z" />
<glyph unicode="&#xec43;" glyph-name="caret-back-circle-outline" data-tags="caret-back-circle-outline" d="M547.54 620.86l-178.18-148.26c-7.070-5.911-11.534-14.734-11.534-24.6s4.465-18.689 11.484-24.559l0.050-0.041 178.18-148.26c5.503-4.601 12.655-7.395 20.46-7.395 17.664 0 31.986 14.313 32 31.974v296.561c-0.014 17.663-14.336 31.975-32 31.975-7.805 0-14.957-2.794-20.511-7.436l0.051 0.041z" />
<glyph unicode="&#xec44;" glyph-name="caret-back-outline" data-tags="caret-back-outline" d="M643.88 764l-326.24-279.56c-10.285-8.855-16.757-21.892-16.757-36.44s6.472-27.585 16.694-36.387l0.063-0.053 326.24-279.56c31.14-26.68 79.24-4.56 79.24 36.44v559.2c0 41-48.1 63.12-79.24 36.36z" />
<glyph unicode="&#xec4a;" glyph-name="albums-outline" data-tags="albums-outline" d="M288 800h448M224 704h576" />
<glyph unicode="&#xec4b;" glyph-name="alert-circle-outline" data-tags="alert-circle-outline" d="M512 224.18c-22.091 0-40 17.909-40 40s17.909 40 40 40c22.091 0 40-17.909 40-40v0c0-22.091-17.909-40-40-40v0z" />
<glyph unicode="&#xec58;" glyph-name="arrow-redo-circle-outline" data-tags="arrow-redo-circle-outline" d="M533.82 304.52v74.64c-114.14 0-169.020-26.94-217.16-77.36-10.8-11.3-30-2.64-28.58 12.86 10.9 122.9 68.28 234.18 245.74 234.18v74.64c0.090 9.122 7.505 16.482 16.639 16.482 4.397 0 8.395-1.705 11.37-4.49l-0.009 0.009 169.020-159.48c3.178-2.998 5.157-7.238 5.157-11.94s-1.979-8.942-5.149-11.932l-0.008-0.008-168.84-159.54c-2.987-2.879-7.056-4.652-11.54-4.652-9.173 0-16.613 7.423-16.64 16.589v0.003z" />
<glyph unicode="&#xec5a;" glyph-name="arrow-undo-circle-outline" data-tags="arrow-undo-circle-outline" d="M490.18 304.52v74.64c114.14 0 169.020-26.94 217.16-77.36 10.8-11.3 30-2.64 28.58 12.86-10.9 122.9-68.28 234.18-245.74 234.18v74.64c-0.037 9.162-7.473 16.575-16.64 16.575-4.445 0-8.482-1.743-11.467-4.582l-168.913-159.473c-3.178-2.998-5.157-7.238-5.157-11.94s1.979-8.942 5.149-11.932l0.008-0.008 168.84-159.54c2.987-2.879 7.056-4.652 11.54-4.652 9.173 0 16.613 7.423 16.64 16.589v0.003z" />
<glyph unicode="&#xec69;" glyph-name="bandage-outline" data-tags="bandage-outline" d="M544 544c0-17.673-14.327-32-32-32s-32 14.327-32 32c0 17.673 14.327 32 32 32s32-14.327 32-32zM640 448c0-17.673-14.327-32-32-32s-32 14.327-32 32c0 17.673 14.327 32 32 32s32-14.327 32-32zM448 448c0-17.673-14.327-32-32-32s-32 14.327-32 32c0 17.673 14.327 32 32 32s32-14.327 32-32zM544 352c0-17.673-14.327-32-32-32s-32 14.327-32 32c0 17.673 14.327 32 32 32s32-14.327 32-32z" />
</font>
</defs>
</svg>
