<?xml version="1.0" standalone="no"?>
<!DOCTYPE svg PUBLIC "-//W3C//DTD SVG 1.1//EN" "http://www.w3.org/Graphics/SVG/1.1/DTD/svg11.dtd" >
<svg xmlns="http://www.w3.org/2000/svg">
<metadata>
<json>
<![CDATA[
{
	"fontFamily": "ionic-icons-circle",
	"majorVersion": 1,
	"minorVersion": 0,
	"version": "Version 1.0",
	"fontId": "ionic-icons-circle",
	"psName": "ionic-icons-circle",
	"subFamily": "Regular",
	"fullName": "ionic-icons-circle",
	"description": "Font generated by IcoMoon."
}
]]>
</json>
</metadata>
<defs>
<font id="ionic-icons-circle" horiz-adv-x="1024">
<font-face units-per-em="1024" ascent="960" descent="-64" />
<missing-glyph horiz-adv-x="1024" />
<glyph unicode="&#x20;" horiz-adv-x="512" d="" />
<glyph unicode="&#xe900;" glyph-name="add-circle" data-tags="add-circle" d="M512 725.333c-152.92 0-277.333-124.413-277.333-277.333s124.413-277.333 277.333-277.333 277.333 124.413 277.333 277.333-124.413 277.333-277.333 277.333zM618.667 426.667h-85.333v-85.333c0-11.782-9.551-21.333-21.333-21.333s-21.333 9.551-21.333 21.333v0 85.333h-85.333c-11.782 0-21.333 9.551-21.333 21.333s9.551 21.333 21.333 21.333v0h85.333v85.333c0 11.782 9.551 21.333 21.333 21.333s21.333-9.551 21.333-21.333v0-85.333h85.333c11.782 0 21.333-9.551 21.333-21.333s-9.551-21.333-21.333-21.333v0z" />
<glyph unicode="&#xe901;" glyph-name="alert-circle" data-tags="alert-circle" d="M512 725.333c-152.92 0-277.333-124.413-277.333-277.333s124.413-277.333 277.333-277.333 277.333 124.413 277.333 277.333-124.413 277.333-277.333 277.333zM512 298.787c-14.727 0-26.667 11.939-26.667 26.667s11.939 26.667 26.667 26.667c14.727 0 26.667-11.939 26.667-26.667v0c0-14.727-11.939-26.667-26.667-26.667v0zM540.96 566.987l-7.653-162.667c0-11.782-9.551-21.333-21.333-21.333s-21.333 9.551-21.333 21.333v0l-7.653 162.587v0.067c-0.017 0.371-0.027 0.806-0.027 1.243 0 16.009 12.978 28.987 28.987 28.987s28.987-12.978 28.987-28.987c0-0.437-0.010-0.872-0.029-1.305l0.002 0.061z" />
<glyph unicode="&#xe902;" glyph-name="arrow-back-circle" data-tags="arrow-back-circle" d="M234.667 448c0-153.16 124.173-277.333 277.333-277.333s277.333 124.173 277.333 277.333-124.173 277.333-277.333 277.333-277.333-124.173-277.333-277.333zM518.2 569.813c3.897-3.867 6.311-9.225 6.311-15.147 0-5.862-2.365-11.172-6.191-15.028l-69.759-70.305h178.107c11.782 0 21.333-9.551 21.333-21.333s-9.551-21.333-21.333-21.333v0h-178.107l69.76-70.307c3.823-3.856 6.185-9.165 6.185-15.027 0-11.789-9.557-21.345-21.345-21.345-5.927 0-11.291 2.416-15.159 6.317l-0.001 0.001-105.853 106.667c-3.826 3.855-6.191 9.165-6.191 15.027s2.365 11.172 6.191 15.028l-0.001-0.001 105.853 106.667c3.868 3.905 9.231 6.324 15.16 6.324 5.869 0 11.184-2.37 15.041-6.205l-0.001 0.001z" />
<glyph unicode="&#xe903;" glyph-name="arrow-down-circle" data-tags="arrow-down-circle" d="M512 170.667c153.16 0 277.333 124.173 277.333 277.333s-124.173 277.333-277.333 277.333-277.333-124.173-277.333-277.333 124.173-277.333 277.333-277.333zM390.187 454.2c3.867 3.897 9.225 6.311 15.147 6.311 5.862 0 11.172-2.365 15.028-6.191l70.305-69.759v178.107c0 11.782 9.551 21.333 21.333 21.333s21.333-9.551 21.333-21.333v0-178.107l70.307 69.76c3.856 3.823 9.165 6.185 15.027 6.185 11.789 0 21.345-9.557 21.345-21.345 0-5.927-2.416-11.291-6.317-15.159l-0.001-0.001-106.667-105.853c-3.855-3.826-9.165-6.191-15.027-6.191s-11.172 2.365-15.028 6.191l0.001-0.001-106.667 105.853c-3.905 3.868-6.324 9.231-6.324 15.16 0 5.869 2.37 11.184 6.205 15.041l-0.001-0.001z" />
<glyph unicode="&#xe904;" glyph-name="arrow-forward-circle" data-tags="arrow-forward-circle" d="M789.333 448c0 153.16-124.173 277.333-277.333 277.333s-277.333-124.173-277.333-277.333 124.173-277.333 277.333-277.333 277.333 124.173 277.333 277.333zM505.8 326.187c-3.897 3.867-6.311 9.225-6.311 15.147 0 5.862 2.365 11.172 6.191 15.028l69.759 70.305h-178.107c-11.782 0-21.333 9.551-21.333 21.333s9.551 21.333 21.333 21.333v0h178.107l-69.76 70.307c-3.823 3.856-6.185 9.165-6.185 15.027 0 11.789 9.557 21.345 21.345 21.345 5.927 0 11.291-2.416 15.159-6.317l0.001-0.001 105.853-106.667c3.826-3.855 6.191-9.165 6.191-15.027s-2.365-11.172-6.191-15.028l0.001 0.001-105.853-106.667c-3.868-3.905-9.231-6.324-15.16-6.324-5.869 0-11.184 2.37-15.041 6.205l0.001-0.001z" />
<glyph unicode="&#xe905;" glyph-name="arrow-redo-circle" data-tags="arrow-redo-circle" d="M234.667 448c0-153.16 124.173-277.333 277.333-277.333s277.333 124.173 277.333 277.333-124.173 277.333-277.333 277.333-277.333-124.173-277.333-277.333zM362.667 359.107c7.267 81.933 45.52 156.12 163.827 156.12v49.76c0.060 6.081 5.003 10.988 11.093 10.988 2.931 0 5.597-1.137 7.58-2.993l-0.006 0.006 112.733-106.32c2.119-1.999 3.438-4.825 3.438-7.96s-1.319-5.961-3.433-7.955l-0.005-0.005-112.56-106.36c-1.977-1.851-4.643-2.988-7.574-2.988-6.089 0-11.033 4.907-11.093 10.982v49.725c-76.093 0-112.68-17.96-144.773-51.573-7.32-7.533-20.093-1.76-19.227 8.573z" />
<glyph unicode="&#xe906;" glyph-name="arrow-undo-circle" data-tags="arrow-undo-circle" d="M512 725.333c-153.16 0-277.333-124.173-277.333-277.333s124.173-277.333 277.333-277.333 277.333 124.173 277.333 277.333-124.173 277.333-277.333 277.333zM642.227 350.533c-32.093 33.613-68.68 51.573-144.773 51.573v-49.76c-0.025-6.108-4.982-11.050-11.093-11.050-2.963 0-5.655 1.162-7.645 3.055l-112.609 106.315c-2.119 1.999-3.438 4.825-3.438 7.96s1.319 5.961 3.433 7.955l0.005 0.005 112.56 106.36c1.985 1.889 4.677 3.050 7.64 3.050 6.111 0 11.069-4.942 11.093-11.048v-49.763c118.307 0 156.56-74.187 163.827-156.12 0.973-10.293-11.8-16.067-19-8.533z" />
<glyph unicode="&#xe907;" glyph-name="arrow-up-circle" data-tags="arrow-up-circle" d="M512 725.333c-153.16 0-277.333-124.173-277.333-277.333s124.173-277.333 277.333-277.333 277.333 124.173 277.333 277.333-124.173 277.333-277.333 277.333zM633.813 441.8c-3.867-3.897-9.225-6.311-15.147-6.311-5.862 0-11.172 2.365-15.028 6.191l-70.305 69.759v-178.107c0-11.782-9.551-21.333-21.333-21.333s-21.333 9.551-21.333 21.333v0 178.107l-70.307-69.76c-3.856-3.823-9.165-6.185-15.027-6.185-11.789 0-21.345 9.557-21.345 21.345 0 5.927 2.416 11.291 6.317 15.159l0.001 0.001 106.667 105.853c3.855 3.826 9.165 6.191 15.027 6.191s11.172-2.365 15.028-6.191l-0.001 0.001 106.667-105.853c3.905-3.868 6.324-9.231 6.324-15.16 0-5.869-2.37-11.184-6.205-15.041l0.001 0.001z" />
<glyph unicode="&#xe908;" glyph-name="at-circle" data-tags="at-circle" d="M511.28 724.347c-153.12 0-277.333-124.147-277.333-277.333s124.16-277.333 277.333-277.333 277.333 124.16 277.333 277.333-124.2 277.333-277.333 277.333zM677.707 453.333c-3.8-43.507-22.387-66.267-37.333-77.68s-32.893-16.427-48.373-13.653c-14.891 2.733-27.451 11.091-35.642 22.743l-0.118 0.177c-14.889-14.494-35.249-23.433-57.696-23.433-0.341 0-0.682 0.002-1.023 0.006l0.052-0.001c-0.157-0.001-0.342-0.002-0.528-0.002-20.123 0-38.231 8.629-50.825 22.39l-0.047 0.052c-15.173 16.56-22.667 40.48-20.427 65.64 4 46.667 41.213 76.52 75.827 81.973 36.267 5.72 69.64-8.72 83.867-25.947l5.133-6.213-8.453-67.173c-1.587-19.12 4.373-31.307 16.387-33.467 3.187-0.56 10.8 0.173 19.16 6.573 8.96 6.867 20.187 21.333 22.8 51.293 3.133 35.387-5.8 65.587-25.667 87.32-20.653 22.533-52.12 34.453-90.973 34.453-72 0-135.747-59.24-142.107-132-3.040-34.933 7.56-67.573 29.867-91.907 21.813-23.813 52.413-36.987 86.213-36.987 25.333 0 40.813 2.733 65.973 11.707 1.865 0.686 4.020 1.083 6.267 1.083 10.311 0 18.67-8.359 18.67-18.67 0-8.064-5.113-14.934-12.273-17.545l-0.13-0.041c-29.093-10.36-48.907-13.867-78.507-13.867-44.373 0-84.76 17.413-113.733 49.027-29.4 32.147-43.507 74.893-39.533 120.387 3.88 44.44 24.6 86.173 58.36 117.493s76.76 48.653 120.933 48.653c49.6 0 90.573-16.107 118.493-46.573 26.787-29.213 39.347-70.333 35.387-115.813zM507.427 494.667c-19.773-3.107-42.080-21.12-44.453-48.347-1.333-14.747 2.667-28.293 10.76-37.16 5.791-6.361 14.105-10.338 23.347-10.338 0.187 0 0.374 0.001 0.561 0.005l-0.028-0.001c27.080 0 46.307 19.92 49 50.747 0.093 1.034 0.253 1.975 0.481 2.889l-0.027-0.129 4.267 33.933c-9.625 5.781-21.239 9.2-33.651 9.2-3.62 0-7.173-0.291-10.635-0.851l0.38 0.051z" />
<glyph unicode="&#xe909;" glyph-name="caret-back-circle" data-tags="caret-back-circle" d="M234.667 448c0-153.16 124.173-277.333 277.333-277.333s277.333 124.173 277.333 277.333-124.173 277.333-277.333 277.333-277.333-124.173-277.333-277.333zM570.667 546.853v-197.707c-0.009-11.775-9.557-21.317-21.333-21.317-5.203 0-9.971 1.863-13.674 4.957l0.034-0.027-118.787 98.84c-4.713 3.941-7.689 9.823-7.689 16.4s2.977 12.459 7.656 16.373l0.033 0.027 118.787 98.84c3.669 3.067 8.437 4.93 13.64 4.93 11.776 0 21.324-9.542 21.333-21.316v-0.001z" />
<glyph unicode="&#xe90a;" glyph-name="caret-down-circle" data-tags="caret-down-circle" d="M789.333 448c0 153.16-124.173 277.333-277.333 277.333s-277.333-124.173-277.333-277.333 124.173-277.333 277.333-277.333 277.333 124.173 277.333 277.333zM627.24 471.693l-98.84-118.787c-3.941-4.713-9.823-7.689-16.4-7.689s-12.459 2.977-16.373 7.656l-0.027 0.033-98.84 118.787c-3.067 3.669-4.93 8.437-4.93 13.64 0 11.776 9.542 21.324 21.316 21.333h197.707c11.775-0.009 21.317-9.557 21.317-21.333 0-5.203-1.863-9.971-4.957-13.674l0.027 0.034z" />
<glyph unicode="&#xe90b;" glyph-name="caret-forward-circle" data-tags="caret-forward-circle" d="M789.333 448c0 153.16-124.173 277.333-277.333 277.333s-277.333-124.173-277.333-277.333 124.173-277.333 277.333-277.333 277.333 124.173 277.333 277.333zM453.333 349.147v197.707c0.009 11.775 9.557 21.317 21.333 21.317 5.203 0 9.971-1.863 13.674-4.957l-0.034 0.027 118.787-98.84c4.713-3.941 7.689-9.823 7.689-16.4s-2.977-12.459-7.656-16.373l-0.033-0.027-118.787-98.84c-3.669-3.067-8.437-4.93-13.64-4.93-11.776 0-21.324 9.542-21.333 21.316v0.001z" />
<glyph unicode="&#xe90c;" glyph-name="caret-up-circle" data-tags="caret-up-circle" d="M512 725.333c-153.16 0-277.333-124.173-277.333-277.333s124.173-277.333 277.333-277.333 277.333 124.173 277.333 277.333-124.173 277.333-277.333 277.333zM610.853 389.333h-197.707c-11.775 0.009-21.317 9.557-21.317 21.333 0 5.203 1.863 9.971 4.957 13.674l-0.027-0.034 98.84 118.787c3.941 4.713 9.823 7.689 16.4 7.689s12.459-2.977 16.373-7.656l0.027-0.033 98.84-118.787c3.067-3.669 4.93-8.437 4.93-13.64 0-11.776-9.542-21.324-21.316-21.333h-0.001z" />
<glyph unicode="&#xe90d;" glyph-name="checkmark-circle" data-tags="checkmark-circle" d="M512 725.333c-152.92 0-277.333-124.413-277.333-277.333s124.413-277.333 277.333-277.333 277.333 124.413 277.333 277.333-124.413 277.333-277.333 277.333zM656.333 540.947l-179.2-213.333c-3.869-4.585-9.583-7.508-15.982-7.613h-0.378c-6.285 0.003-11.934 2.722-15.837 7.048l-0.017 0.019-76.8 85.333c-3.599 3.811-5.811 8.964-5.811 14.635 0 11.782 9.551 21.333 21.333 21.333 6.46 0 12.249-2.871 16.161-7.407l0.023-0.027 60.387-67.093 163.453 194.547c3.933 4.53 9.702 7.377 16.135 7.377 11.782 0 21.333-9.551 21.333-21.333 0-5.132-1.812-9.841-4.831-13.521l0.030 0.037z" />
<glyph unicode="&#xe90e;" glyph-name="checkmark-done-circle" data-tags="checkmark-done-circle" d="M515.867 725.333c-155.973 2.107-283.307-125.227-281.2-281.2 2.080-149.587 123.88-271.387 273.467-273.467 156-2.133 283.307 125.2 281.173 281.173-2.053 149.613-123.853 271.413-273.44 273.493zM493.48 468.707l68.733 78.667c3.931 4.483 9.671 7.297 16.067 7.297 11.784 0 21.337-9.553 21.337-21.337 0-5.388-1.997-10.309-5.291-14.064l0.021 0.024-68.733-78.667c-3.931-4.483-9.671-7.297-16.067-7.297-11.784 0-21.337 9.553-21.337 21.337 0 5.388 1.997 10.309 5.291 14.064l-0.021-0.024zM441.667 347.573c-3.86-3.857-9.191-6.243-15.080-6.243s-11.22 2.386-15.080 6.243v0l-63.933 64c-3.857 3.861-6.243 9.191-6.243 15.080 0 11.783 9.553 21.336 21.336 21.336 5.895 0 11.231-2.391 15.093-6.255l64-64c3.83-3.855 6.197-9.168 6.197-15.033 0-5.912-2.405-11.262-6.289-15.126l-0.001-0.001zM677.4 519.293l-149.173-170.667c-3.775-4.309-9.217-7.078-15.31-7.292l-0.037-0.001h-0.72c-0.001 0-0.002 0-0.003 0-5.893 0-11.229 2.39-15.090 6.253l-63.92 64c-3.857 3.861-6.243 9.191-6.243 15.080 0 11.783 9.553 21.336 21.336 21.336 5.895 0 11.231-2.391 15.093-6.255l39.733-39.773c1.931-1.931 4.597-3.125 7.543-3.125 3.197 0 6.065 1.406 8.019 3.633l0.011 0.012 126.667 144.88c3.931 4.483 9.671 7.297 16.067 7.297 11.784 0 21.337-9.553 21.337-21.337 0-5.388-1.997-10.309-5.291-14.064l0.021 0.024z" />
<glyph unicode="&#xe90f;" glyph-name="chevron-back-circle" data-tags="chevron-back-circle" d="M512 725.333c-153.16 0-277.333-124.173-277.333-277.333s124.173-277.333 277.333-277.333 277.333 124.173 277.333 277.333-124.173 277.333-277.333 277.333zM559.080 335.080c4.093-3.895 6.639-9.383 6.639-15.466 0-11.782-9.551-21.333-21.333-21.333-6.083 0-11.571 2.546-15.458 6.631l-128.009 128.009c-3.857 3.86-6.243 9.191-6.243 15.080s2.386 11.22 6.243 15.080l128 128c3.818 3.633 8.995 5.867 14.694 5.867 11.782 0 21.333-9.551 21.333-21.333 0-5.699-2.235-10.876-5.875-14.703l-112.898-112.911z" />
<glyph unicode="&#xe910;" glyph-name="chevron-down-circle" data-tags="chevron-down-circle" d="M789.333 448c0 153.16-124.173 277.333-277.333 277.333s-277.333-124.173-277.333-277.333 124.173-277.333 277.333-277.333 277.333 124.173 277.333 277.333zM655.080 486.253l-128-128c-3.86-3.857-9.191-6.243-15.080-6.243s-11.22 2.386-15.080 6.243l-128 128c-3.633 3.818-5.867 8.995-5.867 14.694 0 11.782 9.551 21.333 21.333 21.333 5.699 0 10.876-2.235 14.703-5.875l112.911-112.898 112.92 112.907c3.818 3.633 8.995 5.867 14.694 5.867 11.782 0 21.333-9.551 21.333-21.333 0-5.699-2.235-10.876-5.875-14.703l0.009 0.009z" />
<glyph unicode="&#xe911;" glyph-name="chevron-forward-circle" data-tags="chevron-forward-circle" d="M234.667 448c0-153.16 124.173-277.333 277.333-277.333s277.333 124.173 277.333 277.333-124.173 277.333-277.333 277.333-277.333-124.173-277.333-277.333zM577.827 448l-112.907 112.92c-3.633 3.818-5.867 8.995-5.867 14.694 0 11.782 9.551 21.333 21.333 21.333 5.699 0 10.876-2.235 14.703-5.875l127.991-127.991c3.857-3.86 6.243-9.191 6.243-15.080s-2.386-11.22-6.243-15.080l-128-128c-3.818-3.633-8.995-5.867-14.694-5.867-11.782 0-21.333 9.551-21.333 21.333 0 5.699 2.235 10.876 5.875 14.703l-0.009-0.009z" />
<glyph unicode="&#xe912;" glyph-name="chevron-up-circle" data-tags="chevron-up-circle" d="M512 725.333c-153.16 0-277.333-124.173-277.333-277.333s124.173-277.333 277.333-277.333 277.333 124.173 277.333 277.333-124.173 277.333-277.333 277.333zM655.080 379.587c-3.86-3.857-9.191-6.243-15.080-6.243s-11.22 2.386-15.080 6.243l-112.92 112.907-112.92-112.907c-3.818-3.633-8.995-5.867-14.694-5.867-11.782 0-21.333 9.551-21.333 21.333 0 5.699 2.235 10.876 5.875 14.703l127.991 127.991c3.86 3.857 9.191 6.243 15.080 6.243s11.22-2.386 15.080-6.243l128-128c3.857-3.86 6.243-9.191 6.243-15.080s-2.386-11.22-6.243-15.080v0z" />
<glyph unicode="&#xe913;" glyph-name="close-circle" data-tags="close-circle" d="M512 725.333c-152.92 0-277.333-124.413-277.333-277.333s124.413-277.333 277.333-277.333 277.333 124.413 277.333 277.333-124.413 277.333-277.333 277.333zM612.413 377.747c4.093-3.895 6.639-9.383 6.639-15.466 0-11.782-9.551-21.333-21.333-21.333-6.083 0-11.571 2.546-15.458 6.631l-70.262 70.249-70.253-70.24c-3.818-3.633-8.995-5.867-14.694-5.867-11.782 0-21.333 9.551-21.333 21.333 0 5.699 2.235 10.876 5.875 14.703l70.231 70.245-70.24 70.253c-3.633 3.818-5.867 8.995-5.867 14.694 0 11.782 9.551 21.333 21.333 21.333 5.699 0 10.876-2.235 14.703-5.875l70.245-70.231 70.253 70.24c3.818 3.633 8.995 5.867 14.694 5.867 11.782 0 21.333-9.551 21.333-21.333 0-5.699-2.235-10.876-5.875-14.703l-70.231-70.245z" />
<glyph unicode="&#xe914;" glyph-name="cloud-circle" data-tags="cloud-circle" d="M512 725.333c-153.16 0-277.333-124.173-277.333-277.333s124.173-277.333 277.333-277.333 277.333 124.173 277.333 277.333-124.173 277.333-277.333 277.333zM605.333 352h-177.267c-42.040 0-76.747 34.107-76 76.147 0.707 42.32 31.573 66.6 68.467 72.4 3.785 0.616 6.854 3.171 8.189 6.595l0.025 0.072c11.347 29.827 40.093 58.12 83.253 58.12 44.227 0 82.467-29.987 93.52-80.28 2.005-8.858 8.773-15.737 17.411-17.873l0.163-0.034c24.627-5.88 48.907-23.427 48.907-56.48 0-40.373-30-58.667-66.667-58.667z" />
<glyph unicode="&#xe915;" glyph-name="ellipsis-horizontal-circle" data-tags="ellipsis-horizontal-circle" d="M546.667 448c0-19.146-15.521-34.667-34.667-34.667s-34.667 15.521-34.667 34.667c0 19.146 15.521 34.667 34.667 34.667s34.667-15.521 34.667-34.667zM666.667 448c0-19.146-15.521-34.667-34.667-34.667s-34.667 15.521-34.667 34.667c0 19.146 15.521 34.667 34.667 34.667s34.667-15.521 34.667-34.667zM426.667 448c0-19.146-15.521-34.667-34.667-34.667s-34.667 15.521-34.667 34.667c0 19.146 15.521 34.667 34.667 34.667s34.667-15.521 34.667-34.667z" />
<glyph unicode="&#xe916;" glyph-name="ellipsis-vertical-circle" data-tags="ellipsis-vertical-circle" d="M546.667 448c0-19.146-15.521-34.667-34.667-34.667s-34.667 15.521-34.667 34.667c0 19.146 15.521 34.667 34.667 34.667s34.667-15.521 34.667-34.667zM546.667 328c0-19.146-15.521-34.667-34.667-34.667s-34.667 15.521-34.667 34.667c0 19.146 15.521 34.667 34.667 34.667s34.667-15.521 34.667-34.667zM546.667 568c0-19.146-15.521-34.667-34.667-34.667s-34.667 15.521-34.667 34.667c0 19.146 15.521 34.667 34.667 34.667s34.667-15.521 34.667-34.667z" />
<glyph unicode="&#xe917;" glyph-name="filter-circle" data-tags="filter-circle" d="M512 725.333c-152.92 0-277.333-124.413-277.333-277.333s124.413-277.333 277.333-277.333 277.333 124.413 277.333 277.333-124.413 277.333-277.333 277.333zM554.667 320h-85.333c-11.782 0-21.333 9.551-21.333 21.333s9.551 21.333 21.333 21.333v0h85.333c11.782 0 21.333-9.551 21.333-21.333s-9.551-21.333-21.333-21.333v0zM618.667 405.333h-213.333c-11.782 0-21.333 9.551-21.333 21.333s9.551 21.333 21.333 21.333v0h213.333c11.782 0 21.333-9.551 21.333-21.333s-9.551-21.333-21.333-21.333v0zM661.333 490.667h-298.667c-11.782 0-21.333 9.551-21.333 21.333s9.551 21.333 21.333 21.333v0h298.667c11.782 0 21.333-9.551 21.333-21.333s-9.551-21.333-21.333-21.333v0z" />
<glyph unicode="&#xe918;" glyph-name="heart-circle" data-tags="heart-circle" d="M512 725.333c-152.92 0-277.333-124.413-277.333-277.333s124.413-277.333 277.333-277.333 277.333 124.413 277.333 277.333-124.413 277.333-277.333 277.333zM611.587 388.24c-12.507-15.253-35.2-39.64-87.6-75.213-3.357-2.325-7.516-3.715-12-3.715s-8.643 1.389-12.071 3.761l0.071-0.046c-52.4 35.573-75.093 60-87.6 75.213-26.667 32.493-39.44 65.867-39.067 102 0.413 41.413 33.627 75.107 74.040 75.107 27.2 0 46.667-14.173 58.8-27.213 1.461-1.543 3.525-2.504 5.813-2.504s4.352 0.961 5.81 2.501l0.003 0.004c12.147 13.040 31.6 27.213 58.8 27.213 40.413 0 73.627-33.693 74.040-75.107 0.4-36.133-12.387-69.507-39.040-102z" />
<glyph unicode="&#xe919;" glyph-name="heart-dislike-circle" data-tags="heart-dislike-circle" d="M512 725.333c-152.92 0-277.333-124.413-277.333-277.333s124.413-277.333 277.333-277.333 277.333 124.413 277.333 277.333-124.413 277.333-277.333 277.333zM543.067 326.413c-5.88-4.267-12.213-8.733-19.080-13.333-3.357-2.325-7.516-3.715-12-3.715s-8.643 1.389-12.071 3.761l0.071-0.046c-52.4 35.573-75.093 60-87.6 75.213-26.667 32.493-39.44 65.867-39.067 102 0 0.28 0 0.573 0 0.853 0.085 2.879 2.439 5.18 5.331 5.18 1.468 0 2.798-0.593 3.763-1.553l161.267-160.267c0.973-0.967 1.576-2.305 1.576-3.785 0-1.763-0.856-3.327-2.175-4.298l-0.015-0.011zM633.733 304.92c-3.86-3.857-9.191-6.243-15.080-6.243s-11.22 2.386-15.080 6.243l-234.667 234.667c-3.633 3.818-5.867 8.995-5.867 14.694 0 11.782 9.551 21.333 21.333 21.333 5.699 0 10.876-2.235 14.703-5.875l234.658-234.658c3.861-3.861 6.25-9.195 6.25-15.087 0-5.885-2.383-11.214-6.237-15.073v0zM614.933 392.413c-0.963-1.295-2.487-2.125-4.207-2.125-1.493 0-2.839 0.625-3.791 1.629l-0.002 0.002-165.333 164.28c-0.983 0.968-1.591 2.313-1.591 3.8 0 2.943 2.383 5.328 5.324 5.333h2.067c27.2 0 46.667-14.187 58.813-27.227 1.449-1.56 3.511-2.533 5.8-2.533s4.351 0.973 5.795 2.528l0.005 0.005c12.147 13.040 31.613 27.227 58.813 27.227 40.413 0 73.627-33.693 74.040-75.107 0.347-34.573-11.36-66.627-35.733-97.813z" />
<glyph unicode="&#xe91a;" glyph-name="help-circle" data-tags="help-circle" d="M512 704c-141.333 0-256-114.667-256-256s114.667-256 256-256 256 114.667 256 256-114.667 256-256 256zM504 298.667c-14.727 0-26.667 11.939-26.667 26.667s11.939 26.667 26.667 26.667c14.727 0 26.667-11.939 26.667-26.667v0c0-14.727-11.939-26.667-26.667-26.667v0zM548.587 434.667c-21.613-14.507-24.587-27.8-24.587-40 0-10.309-8.357-18.667-18.667-18.667s-18.667 8.357-18.667 18.667v0c0 29.213 13.44 52.44 41.093 71.013 25.707 17.253 40.24 28.187 40.24 52.227 0 16.347-9.333 28.76-28.653 37.947-4.547 2.16-14.667 4.267-27.12 4.12-15.627-0.2-27.76-3.933-37.107-11.453-17.627-14.187-19.12-29.627-19.12-29.853-0.493-9.927-8.662-17.789-18.667-17.789-10.321 0-18.689 8.367-18.689 18.689 0 0.317 0.008 0.631 0.023 0.944l-0.002-0.044c0.147 3.24 2.4 32.427 33.027 57.067 15.88 12.773 36.080 19.413 60 19.707 16.933 0.2 32.84-2.667 43.627-7.76 32.28-15.267 50.013-40.72 50.013-71.573 0-45.107-30.147-65.36-56.747-83.24z" />
<glyph unicode="&#xe91b;" glyph-name="information-circle" data-tags="information-circle" d="M512 714.667c-147.040 0-266.667-119.627-266.667-266.667s119.627-266.667 266.667-266.667 266.667 119.627 266.667 266.667-119.627 266.667-266.667 266.667zM512 605.333c19.146 0 34.667-15.521 34.667-34.667s-15.521-34.667-34.667-34.667c-19.146 0-34.667 15.521-34.667 34.667v0c0 19.146 15.521 34.667 34.667 34.667v0zM576 304h-117.333c-11.782 0-21.333 9.551-21.333 21.333s9.551 21.333 21.333 21.333v0h37.333v117.333h-21.333c-11.782 0-21.333 9.551-21.333 21.333s9.551 21.333 21.333 21.333v0h42.667c11.782 0 21.333-9.551 21.333-21.333v0-138.667h37.333c11.782 0 21.333-9.551 21.333-21.333s-9.551-21.333-21.333-21.333v0z" />
<glyph unicode="&#xe91c;" glyph-name="list-circle" data-tags="list-circle" d="M512 725.333c-152.92 0-277.333-124.413-277.333-277.333s124.413-277.333 277.333-277.333 277.333 124.413 277.333 277.333-124.413 277.333-277.333 277.333zM394.667 322.667c-17.673 0-32 14.327-32 32s14.327 32 32 32c17.673 0 32-14.327 32-32v0c0-17.673-14.327-32-32-32v0zM394.667 417.333c-17.673 0-32 14.327-32 32s14.327 32 32 32c17.673 0 32-14.327 32-32v0c0-17.673-14.327-32-32-32v0zM394.667 514.667c-17.673 0-32 14.327-32 32s14.327 32 32 32c17.673 0 32-14.327 32-32v0c0-17.673-14.327-32-32-32v0zM640 334.667h-170.667c-11.782 0-21.333 9.551-21.333 21.333s9.551 21.333 21.333 21.333v0h170.667c11.782 0 21.333-9.551 21.333-21.333s-9.551-21.333-21.333-21.333v0zM640 429.333h-170.667c-11.782 0-21.333 9.551-21.333 21.333s9.551 21.333 21.333 21.333v0h170.667c11.782 0 21.333-9.551 21.333-21.333s-9.551-21.333-21.333-21.333v0zM640 525.333h-170.667c-11.782 0-21.333 9.551-21.333 21.333s9.551 21.333 21.333 21.333v0h170.667c11.782 0 21.333-9.551 21.333-21.333s-9.551-21.333-21.333-21.333v0z" />
<glyph unicode="&#xe91d;" glyph-name="mic-circle" data-tags="mic-circle" d="M512 725.333c-152.92 0-277.333-124.413-277.333-277.333s124.413-277.333 277.333-277.333 277.333 124.413 277.333 277.333-124.413 277.333-277.333 277.333zM448 554.667c0.106 35.303 28.697 63.894 63.99 64h0.010c35.303-0.106 63.894-28.697 64-63.99v-85.343c-0.106-35.303-28.697-63.894-63.99-64h-0.010c-35.303 0.106-63.894 28.697-64 63.99v0.010zM640 458.373c0-31.147-14.587-60.813-41.053-83.547-17.971-15.496-40.231-26.507-64.761-31.043l-0.852-0.131v-23.653h21.333c11.782 0 21.333-9.551 21.333-21.333s-9.551-21.333-21.333-21.333v0h-85.333c-11.782 0-21.333 9.551-21.333 21.333s9.551 21.333 21.333 21.333v0h21.333v23.653c-25.382 4.667-47.642 15.677-65.793 31.325l0.179-0.151c-26.467 22.733-41.053 52.4-41.053 83.547v31.893c0 11.782 9.551 21.333 21.333 21.333s21.333-9.551 21.333-21.333v0-31.893c0-34.213 37.333-73.973 85.333-73.973 39.467 0 85.333 32.307 85.333 73.973v31.893c0 11.782 9.551 21.333 21.333 21.333s21.333-9.551 21.333-21.333v0z" />
<glyph unicode="&#xe91e;" glyph-name="mic-off-circle" data-tags="mic-off-circle" d="M512 725.333c-152.92 0-277.333-124.413-277.333-277.333s124.413-277.333 277.333-277.333 277.333 124.413 277.333 277.333-124.413 277.333-277.333 277.333zM512 618.667v0c35.303-0.106 63.894-28.697 64-63.99v-85.343c-0.002-3.632-0.307-7.191-0.892-10.655l0.052 0.375c-0.222-1.267-1.314-2.219-2.629-2.219-0.787 0-1.494 0.341-1.983 0.883l-0.002 0.003-112.56 123.813c-0.866 0.945-1.397 2.21-1.397 3.599 0 1.021 0.287 1.974 0.784 2.785l-0.013-0.023c11.427 18.543 31.605 30.729 54.633 30.773h0.007zM554.667 277.333h-84.733c-11.48 0-21.333 8.827-21.907 20.307-0.016 0.307-0.025 0.665-0.025 1.027 0 11.781 9.55 21.332 21.331 21.333h21.333v23.653c-25.382 4.667-47.642 15.677-65.793 31.325l0.179-0.151c-26.467 22.733-41.053 52.4-41.053 83.547v32.293c0 0.039-0.001 0.084-0.001 0.13 0 11.716 9.497 21.213 21.213 21.213 0.225 0 0.449-0.003 0.673-0.011l-0.033 0.001c11.595-0.478 20.814-9.993 20.814-21.663 0-0.072-0.001-0.143-0.001-0.215v0.011-31.76c0-34.213 37.333-73.973 85.333-73.973 2.227 0 4.493 0.12 6.747 0.32 0.143 0.014 0.311 0.022 0.479 0.022 1.549 0 2.942-0.671 3.903-1.737l0.004-0.005 28.093-30.92c0.432-0.472 0.697-1.104 0.697-1.797 0-1.193-0.784-2.203-1.865-2.544l-0.019-0.005c-4.52-1.494-10.14-2.909-15.889-3.956l-0.818-0.124v-23.653h20.733c11.48 0 21.333-8.827 21.907-20.307 0.016-0.307 0.025-0.665 0.025-1.027 0-11.781-9.55-21.332-21.331-21.333v0zM450.813 462.547l48.613-53.48c0.224-0.238 0.362-0.559 0.362-0.913 0-0.737-0.597-1.333-1.333-1.333-0.105 0-0.207 0.012-0.304 0.035l0.009-0.002c-26.27 6.079-46.139 27.635-49.632 54.342l-0.035 0.325c-0.005 0.041-0.007 0.089-0.007 0.138 0 0.737 0.597 1.333 1.333 1.333 0.394 0 0.749-0.171 0.993-0.443l0.001-0.001zM654.347 302.88c-3.774-3.439-8.814-5.545-14.347-5.545-6.249 0-11.87 2.687-15.771 6.967l-0.015 0.017-256 280c-3.336 3.747-5.375 8.715-5.375 14.157 0 11.782 9.551 21.333 21.333 21.333 6.159 0 11.709-2.61 15.603-6.785l0.011-0.013 256-280c3.439-3.774 5.545-8.814 5.545-14.347 0-6.249-2.687-11.87-6.967-15.771l-0.017-0.015zM640 458.373c-0.091-20.225-6.006-39.049-16.153-54.905l0.247 0.412c-0.477-0.771-1.317-1.277-2.276-1.277-0.783 0-1.487 0.337-1.975 0.875l-0.002 0.002-25.587 28.133c-0.86 0.943-1.387 2.204-1.387 3.587 0 0.705 0.137 1.379 0.386 1.995l-0.013-0.036c2.571 6.281 4.073 13.569 4.093 21.205v31.741c-0.001 0.063-0.001 0.137-0.001 0.211 0 10.751 7.806 19.679 18.059 21.424l0.129 0.018c13.173 1.973 24.48-8.68 24.48-21.493z" />
<glyph unicode="&#xe91f;" glyph-name="navigate-circle" data-tags="navigate-circle" d="M515.867 725.333c-155.973 2.107-283.307-125.227-281.2-281.2 2.080-149.587 123.88-271.387 273.467-273.467 156-2.133 283.307 125.2 281.173 281.173-2.053 149.613-123.853 271.413-273.44 273.493zM638.667 555.68l-109.653-248.693c-6.387-13.96-27.707-9.333-27.707 6.080v118.933c0 2.945-2.388 5.333-5.333 5.333v0h-118.907c-15.36 0-20 21.16-6.093 27.56l248.707 109.773c1.759 0.832 3.822 1.318 5.998 1.318 7.901 0 14.307-6.405 14.307-14.307 0-2.176-0.486-4.239-1.355-6.085l0.037 0.087z" />
<glyph unicode="&#xe920;" glyph-name="notifications-circle" data-tags="notifications-circle" d="M512 725.333c-152.92 0-277.333-124.413-277.333-277.333s124.413-277.333 277.333-277.333 277.333 124.413 277.333 277.333-124.413 277.333-277.333 277.333zM512 277.333c-27.867 0-50.027 11.813-53 36.773-0.019 0.168-0.029 0.363-0.029 0.56 0 2.945 2.388 5.333 5.333 5.333 0.011 0 0.021 0 0.031 0h95.265c0.011 0 0.025 0 0.039 0 2.945 0 5.333-2.388 5.333-5.333 0-0.225-0.014-0.448-0.041-0.666l0.003 0.026c-3.4-24.493-25.36-36.693-52.933-36.693zM642.667 341.333h-261.333c-15.787 0-24 20-14.92 30.667 21.773 25.787 37.16 36.627 37.16 107.733 0 65.16 34.32 88.28 62.667 99.56 3.944 1.673 6.973 4.855 8.407 8.801l0.033 0.105c4.92 16.333 18.84 30.467 37.32 30.467s32.373-14.133 37.333-30.48c1.476-4.051 4.508-7.231 8.354-8.869l0.099-0.037c28.28-11.253 62.667-34.413 62.667-99.56 0-71.107 15.373-81.947 37.147-107.733 8.987-10.653 0.76-30.653-14.933-30.653z" />
<glyph unicode="&#xe921;" glyph-name="notifications-off-circle" data-tags="notifications-off-circle" d="M512 725.333c-152.92 0-277.333-124.413-277.333-277.333s124.413-277.333 277.333-277.333 277.333 124.413 277.333 277.333-124.413 277.333-277.333 277.333zM366.44 372c21.773 25.787 37.147 36.627 37.147 107.733q0 5 0.267 9.68c0.091 2.874 2.443 5.169 5.331 5.169 1.591 0 3.021-0.697 3.997-1.803l0.005-0.006 130.667-142.493c0.867-0.945 1.398-2.211 1.398-3.6 0-2.94-2.379-5.325-5.317-5.333h-158.601c-15.76-0.013-23.92 19.987-14.893 30.653zM565.013 314.12c-2.973-24.973-25.12-36.787-53.013-36.787s-50.013 11.813-53 36.773c-0.019 0.168-0.029 0.363-0.029 0.56 0 2.945 2.388 5.333 5.333 5.333 0.011 0 0.021 0 0.031 0h95.372c0.001 0 0.002 0 0.003 0 2.945 0 5.333-2.388 5.333-5.333 0-0.197-0.011-0.392-0.031-0.584l0.002 0.024zM654.347 290.893c-3.774-3.439-8.814-5.545-14.347-5.545-6.249 0-11.87 2.687-15.771 6.967l-0.015 0.017-256 282.667c-3.336 3.747-5.375 8.715-5.375 14.157 0 11.782 9.551 21.333 21.333 21.333 6.159 0 11.709-2.61 15.603-6.785l0.011-0.013 256-282.667c3.443-3.775 5.551-8.818 5.551-14.354 0-6.252-2.689-11.875-6.974-15.777l-0.017-0.015zM652 358.387l-192.68 210.24c-0.876 0.947-1.413 2.219-1.413 3.616 0 2.153 1.276 4.008 3.113 4.851l0.033 0.013c1.747 0.773 3.48 1.493 5.187 2.173 3.94 1.673 6.965 4.855 8.393 8.801l0.033 0.105c4.96 16.347 18.867 30.48 37.333 30.48s32.387-14.133 37.333-30.48c1.469-4.055 4.503-7.237 8.354-8.869l0.099-0.037c28.28-11.253 62.667-34.413 62.667-99.56 0-71.107 15.387-81.947 37.16-107.733 2.173-2.615 3.539-5.969 3.679-9.637l0.001-0.030c0.009-0.113 0.013-0.243 0.013-0.375 0-2.945-2.388-5.333-5.333-5.333-1.576 0-2.993 0.683-3.969 1.771l-0.005 0.005z" />
<glyph unicode="&#xe922;" glyph-name="pause-circle" data-tags="pause-circle" d="M512 725.333c-152.92 0-277.333-124.413-277.333-277.333s124.413-277.333 277.333-277.333 277.333 124.413 277.333 277.333-124.413 277.333-277.333 277.333zM469.333 362.667c0-11.782-9.551-21.333-21.333-21.333s-21.333 9.551-21.333 21.333v0 170.667c0 11.782 9.551 21.333 21.333 21.333s21.333-9.551 21.333-21.333v0zM597.333 362.667c0-11.782-9.551-21.333-21.333-21.333s-21.333 9.551-21.333 21.333v0 170.667c0 11.782 9.551 21.333 21.333 21.333s21.333-9.551 21.333-21.333v0z" />
<glyph unicode="&#xe923;" glyph-name="people-circle" data-tags="people-circle" d="M515.867 725.333c-155.973 2.107-283.307-125.227-281.2-281.2 2.080-149.587 123.88-271.387 273.467-273.467 156-2.133 283.307 125.2 281.173 281.173-2.053 149.613-123.853 271.413-273.44 273.493zM510.96 522.52c0.28 1.6 0.587 3.2 0.947 4.787 3.591 16.245 11.214 30.34 21.769 41.666l-0.049-0.053c17.187 18.307 41.547 28.413 68.6 28.413 0.121 0.001 0.263 0.001 0.406 0.001 11.833 0 23.18-2.082 33.695-5.899l-0.687 0.218c13.815-5.005 25.551-12.851 34.983-22.887l0.043-0.047c13.754-14.833 22.632-34.358 23.987-55.925l0.013-0.261c0.176-2.275 0.277-4.925 0.277-7.6s-0.101-5.325-0.297-7.949l0.021 0.349c-1.119-15.219-5.033-29.276-11.233-42.015l0.299 0.682q-1.013-2.12-2.12-4.2c-1.48-2.76-3.067-5.467-4.773-8.080-3.605-5.497-7.393-10.289-11.559-14.723l0.052 0.056c-17.493-18.667-39.893-28.973-63.080-28.973-9.152 0.006-17.939 1.559-26.118 4.409l0.558-0.169c-3.347 1.137-6.036 2.233-8.652 3.458l0.519-0.218c-11.489 5.435-21.252 12.661-29.37 21.431l-0.057 0.062c-16.719 18.092-27.549 41.847-29.315 68.086l-0.019 0.341q-0.36 5.173-0.24 10.24c0.113 5.305 0.618 10.403 1.487 15.377l-0.087-0.603zM311.32 490.067c0.707 10.108 3.19 19.469 7.138 28.015l-0.205-0.495c1.311 2.849 2.547 5.166 3.897 7.407l-0.191-0.341c2.881 4.819 6.049 8.993 9.621 12.783l-0.034-0.037c5.322 5.667 11.476 10.47 18.285 14.233l0.381 0.193c3.019 1.693 6.585 3.329 10.287 4.685l0.526 0.169c8.373 3.025 18.035 4.773 28.107 4.773 5.788 0 11.441-0.577 16.905-1.679l-0.545 0.092c16.315-3.231 30.375-11.299 41.002-22.626l0.038-0.041c12.53-13.495 20.297-31.564 20.546-51.443l0.001-0.050c0.067-2.813 0-5.64-0.2-8.507-0.888-11.683-3.745-22.486-8.243-32.385l0.243 0.599c-2.395-5.359-4.946-9.919-7.849-14.223l0.209 0.329c-5.773-8.645-12.745-15.961-20.779-21.927l-0.234-0.166c-2-1.427-4.080-2.76-6.227-4.093-3.808-2.313-8.21-4.407-12.828-6.044l-0.505-0.156c-6.433-2.322-13.858-3.669-21.595-3.68h-0.005c-1.24 0-2.48 0-3.707 0.107-2.717 0.151-5.228 0.447-7.689 0.883l0.383-0.056c-2.863 0.5-5.265 1.069-7.616 1.762l0.483-0.122c-4.034 1.174-7.449 2.485-10.727 4.038l0.433-0.185c-1.12 0.52-2.213 1.067-3.307 1.64-24 12.653-42.093 38.88-45.64 69.493-0.16 1.4-0.293 2.8-0.387 4.213-0.139 1.866-0.219 4.042-0.219 6.236 0 2.324 0.089 4.627 0.265 6.907l-0.019-0.303zM383.213 251.933c-35.368 23.545-63.479 55.38-81.969 92.817l-0.617 1.383c-0.349 0.69-0.554 1.505-0.554 2.367 0 1.983 1.082 3.713 2.688 4.632l0.026 0.014c24.773 13.933 56.413 21.52 86.307 21.52 22.667 0 40.933-2.667 56.92-7.84 4.294-1.445 7.332-5.433 7.332-10.132 0-3.304-1.502-6.257-3.861-8.214l-0.017-0.014c-31.133-25.333-51.2-56.72-60.627-94.333v0c-0.409-1.628-1.859-2.814-3.587-2.814-0.76 0-1.466 0.229-2.053 0.623l0.013-0.009zM512 213.333c-0.070 0-0.153 0-0.236 0-31.483 0-61.511 6.231-88.917 17.527l1.553-0.567c-1.952 0.821-3.298 2.719-3.298 4.929 0 0.36 0.035 0.711 0.103 1.051l-0.006-0.034c0.533 2.733 1.12 5.227 1.64 7.307 9.493 37.907 33.013 69.333 68 90.907 31.053 19.133 70.667 29.667 111.36 29.667 41.547 0 80-10.107 111.307-29.213v0c1.029-0.652 1.703-1.784 1.703-3.074 0-0.67-0.182-1.297-0.499-1.836l0.009 0.017c-41.413-70.216-116.641-116.602-202.709-116.68h-0.011zM385.333 395.627c-2.717 0.151-5.228 0.447-7.689 0.883l0.383-0.056c2.079-0.38 4.589-0.675 7.14-0.819l0.167-0.007zM350.187 551.827c-7.191-3.957-13.345-8.759-18.63-14.387l-0.037-0.039c-3.537-3.754-6.706-7.928-9.403-12.418l-0.183-0.329c2.881 4.819 6.049 8.993 9.621 12.783l-0.034-0.037c5.322 5.667 11.476 10.47 18.285 14.233l0.381 0.193zM458.893 445.48c4.255 9.301 7.112 20.104 7.98 31.463l0.020 0.323c0.2 2.867 0.267 5.693 0.2 8.507q0.107-4.2-0.2-8.507c-0.888-11.683-3.745-22.486-8.243-32.385l0.243 0.599zM350.187 551.827c3.019 1.693 6.585 3.329 10.287 4.685l0.526 0.169c-4.228-1.524-7.795-3.16-11.201-5.051l0.387 0.197zM370.947 398.093c-4.034 1.174-7.449 2.485-10.727 4.038l0.433-0.185c2.844-1.369 6.259-2.679 9.788-3.725l0.505-0.129zM311.707 473.080c3.547-30.667 21.68-56.84 45.64-69.493-24.013 12.653-42.093 38.88-45.64 69.493zM509.787 497.333c1.785-26.579 12.614-50.335 29.402-68.501l-0.069 0.075c8.175-8.833 17.937-16.059 28.855-21.249l0.571-0.245c-11.489 5.435-21.252 12.661-29.37 21.431l-0.057 0.062c-16.719 18.092-27.549 41.847-29.315 68.086l-0.019 0.341q-0.36 5.173-0.24 10.24-0.12-5 0.24-10.24zM576.667 404.24c-3.347 1.137-6.036 2.233-8.652 3.458l0.519-0.218c2.097-1.007 4.786-2.103 7.539-3.060l0.594-0.18zM511.907 527.28c3.591 16.245 11.214 30.34 21.769 41.666l-0.049-0.053c-10.506-11.273-18.129-25.369-21.61-41.024l-0.11-0.589zM670.667 568.72c13.754-14.833 22.632-34.358 23.987-55.925l0.013-0.261c-1.368 21.829-10.246 41.354-24.053 56.245l0.053-0.058c-9.475 10.083-21.212 17.928-34.409 22.737l-0.618 0.197c13.815-5.005 25.551-12.851 34.983-22.887l0.043-0.047zM694.667 497.333v0c-1.119-15.219-5.033-29.276-11.233-42.015l0.299 0.682c5.9 12.057 9.815 26.114 10.911 40.955l0.023 0.379zM509.547 507.64c0.114 5.333 0.623 10.459 1.501 15.459l-0.088-0.605c-0.79-4.394-1.299-9.52-1.411-14.744l-0.002-0.109zM681.587 451.787c-1.48-2.76-3.067-5.467-4.773-8.080 1.707 2.613 3.293 5.32 4.773 8.080zM446.507 537.267c12.53-13.495 20.297-31.564 20.546-51.443l0.001-0.050c-0.249 19.929-8.017 37.998-20.591 51.542l0.045-0.049c-10.665 11.367-24.725 19.436-40.556 22.586l-0.484 0.081c16.315-3.231 30.375-11.299 41.002-22.626l0.038-0.041zM424 405.333c-3.808-2.313-8.21-4.407-12.828-6.044l-0.505-0.156c5.123 1.793 9.525 3.887 13.657 6.381l-0.324-0.181zM311.32 490.067c0.707 10.108 3.19 19.469 7.138 28.015l-0.205-0.495c-3.743-8.051-6.226-17.412-6.919-27.267l-0.014-0.253zM430.24 409.493c-2.013-1.493-4.093-2.827-6.24-4.16 2.147 1.333 4.227 2.667 6.24 4.16zM458.893 445.48c-2.395-5.359-4.946-9.919-7.849-14.223l0.209 0.329c2.694 3.974 5.245 8.534 7.404 13.31l0.236 0.583zM318.253 517.587c1.311 2.849 2.547 5.166 3.897 7.407l-0.191-0.341c-1.159-1.9-2.395-4.217-3.511-6.602l-0.195-0.465zM430.24 409.493c8.268 6.132 15.24 13.448 20.815 21.777l0.199 0.316c-5.773-8.645-12.745-15.961-20.779-21.927l-0.234-0.166z" />
<glyph unicode="&#xe924;" glyph-name="person-circle" data-tags="person-circle" d="M512 725.333c-152.92 0-277.333-124.413-277.333-277.333s124.413-277.333 277.333-277.333 277.333 124.413 277.333 277.333-124.413 277.333-277.333 277.333zM445.040 569.573c16.893 17.907 40.667 27.76 66.96 27.76s49.853-9.92 66.813-27.92c17.187-18.24 25.547-42.747 23.573-69.093-3.947-52.32-44.48-94.987-90.387-94.987s-86.52 42.667-90.387 95c-1.96 26.56 6.387 51.147 23.427 69.24zM512 213.333c-0.046 0-0.1 0-0.155 0-65.811 0-125.277 27.17-167.792 70.905l-0.053 0.055c12.637 17.871 28.223 32.735 46.191 44.192l0.662 0.395c33.987 21.787 77 33.787 121.147 33.787s87.16-12 121.107-33.787c18.647-11.847 34.247-26.712 46.551-44.077l0.343-0.51c-42.559-43.789-102.018-70.96-167.823-70.96-0.062 0-0.125 0-0.187 0h0.010z" />
<glyph unicode="&#xe925;" glyph-name="play-back-circle" data-tags="play-back-circle" d="M234.667 448c0-152.92 124.413-277.333 277.333-277.333s277.333 124.413 277.333 277.333-124.413 277.333-277.333 277.333-277.333-124.413-277.333-277.333zM326.973 460.4l152.6 92.187c2.109 1.283 4.659 2.043 7.387 2.043 7.938 0 14.373-6.435 14.373-14.373 0-0.029 0-0.059 0-0.088v0.005-71.093l138.24 83.507c2.109 1.283 4.659 2.043 7.387 2.043 7.938 0 14.373-6.435 14.373-14.373 0-0.029 0-0.059 0-0.088v0.005-184.347c0-0.025 0-0.054 0-0.083 0-7.938-6.435-14.373-14.373-14.373-2.728 0-5.278 0.76-7.451 2.079l0.064-0.036-138.24 83.507v-71.093c0-0.025 0-0.054 0-0.083 0-7.938-6.435-14.373-14.373-14.373-2.728 0-5.278 0.76-7.451 2.079l0.064-0.036-152.6 92.187c-4.205 2.593-6.965 7.174-6.965 12.4s2.761 9.807 6.903 12.364l0.063 0.036z" />
<glyph unicode="&#xe926;" glyph-name="play-circle" data-tags="play-circle" d="M512 725.333c-152.92 0-277.333-124.413-277.333-277.333s124.413-277.333 277.333-277.333 277.333 124.413 277.333 277.333-124.413 277.333-277.333 277.333zM611.693 435.6l-152.6-92.187c-2.109-1.283-4.659-2.043-7.387-2.043-7.938 0-14.373 6.435-14.373 14.373 0 0.029 0 0.059 0 0.088v-0.005 184.347c0 0.025 0 0.054 0 0.083 0 7.938 6.435 14.373 14.373 14.373 2.728 0 5.278-0.76 7.451-2.079l-0.064 0.036 152.6-92.187c4.205-2.593 6.965-7.174 6.965-12.4s-2.761-9.807-6.903-12.364l-0.063-0.036z" />
<glyph unicode="&#xe927;" glyph-name="play-forward-circle" data-tags="play-forward-circle" d="M512 725.333c-152.92 0-277.333-124.413-277.333-277.333s124.413-277.333 277.333-277.333 277.333 124.413 277.333 277.333-124.413 277.333-277.333 277.333zM697.027 435.6l-152.6-92.187c-2.109-1.283-4.659-2.043-7.387-2.043-7.938 0-14.373 6.435-14.373 14.373 0 0.029 0 0.059 0 0.088v-0.005 71.093l-138.24-83.507c-2.109-1.283-4.659-2.043-7.387-2.043-7.938 0-14.373 6.435-14.373 14.373 0 0.029 0 0.059 0 0.088v-0.005 184.347c0 0.025 0 0.054 0 0.083 0 7.938 6.435 14.373 14.373 14.373 2.728 0 5.278-0.76 7.451-2.079l-0.064 0.036 138.24-83.507v71.093c0 0.025 0 0.054 0 0.083 0 7.938 6.435 14.373 14.373 14.373 2.728 0 5.278-0.76 7.451-2.079l-0.064 0.036 152.6-92.187c4.205-2.593 6.965-7.174 6.965-12.4s-2.761-9.807-6.903-12.364l-0.063-0.036z" />
<glyph unicode="&#xe928;" glyph-name="play-skip-back-circle" data-tags="play-skip-back-circle" d="M234.667 448c0-152.92 124.413-277.333 277.333-277.333s277.333 124.413 277.333 277.333-124.413 277.333-277.333 277.333-277.333-124.413-277.333-277.333zM405.333 533.333c0 11.782 9.551 21.333 21.333 21.333s21.333-9.551 21.333-21.333v0-70.667l148.907 89.947c2.109 1.283 4.659 2.043 7.387 2.043 7.938 0 14.373-6.435 14.373-14.373 0-0.039 0-0.077-0.001-0.116v0.006-184.347c0-0.025 0-0.054 0-0.083 0-7.938-6.435-14.373-14.373-14.373-2.728 0-5.278 0.76-7.451 2.079l0.064-0.036-148.907 89.92v-70.667c0-11.782-9.551-21.333-21.333-21.333s-21.333 9.551-21.333 21.333v0z" />
<glyph unicode="&#xe929;" glyph-name="play-skip-forward-circle" data-tags="play-skip-forward-circle" d="M512 725.333c-152.92 0-277.333-124.413-277.333-277.333s124.413-277.333 277.333-277.333 277.333 124.413 277.333 277.333-124.413 277.333-277.333 277.333zM618.667 362.667c0-11.782-9.551-21.333-21.333-21.333s-21.333 9.551-21.333 21.333v0 70.667l-148.907-89.92c-2.109-1.283-4.659-2.043-7.387-2.043-7.938 0-14.373 6.435-14.373 14.373 0 0.029 0 0.059 0 0.088v-0.005 184.347c0 0.025 0 0.054 0 0.083 0 7.938 6.435 14.373 14.373 14.373 2.728 0 5.278-0.76 7.451-2.079l-0.064 0.036 148.907-89.92v70.667c0 11.782 9.551 21.333 21.333 21.333s21.333-9.551 21.333-21.333v0z" />
<glyph unicode="&#xe92a;" glyph-name="refresh-circle" data-tags="refresh-circle" d="M512 725.333c-152.92 0-277.333-124.427-277.333-277.333 0-153.147 124.187-277.333 277.333-277.333 152.92 0 277.333 124.413 277.333 277.333 0 153.16-124.173 277.333-277.333 277.333zM512 308c-69.22 0-125.333 56.113-125.333 125.333s56.113 125.333 125.333 125.333v0h5.613l-18.813 18.8c-3.378 3.378-5.467 8.045-5.467 13.2 0 10.31 8.358 18.667 18.667 18.667 5.155 0 9.822-2.089 13.2-5.467l53.333-53.333c3.379-3.378 5.468-8.045 5.468-13.2s-2.089-9.822-5.468-13.2l-53.333-53.333c-3.378-3.378-8.045-5.467-13.2-5.467-10.31 0-18.667 8.358-18.667 18.667 0 5.155 2.089 9.822 5.467 13.2l24 24c-3.173 0.133-6.8 0.133-10.8 0.133-48.601 0-88-39.399-88-88s39.399-88 88-88c48.601 0 88 39.399 88 88v0c0 10.309 8.357 18.667 18.667 18.667s18.667-8.357 18.667-18.667v0c-0.083-69.186-56.147-125.25-125.325-125.333h-0.008z" />
<glyph unicode="&#xe92b;" glyph-name="reload-circle" data-tags="reload-circle" d="M512 725.333c-152.92 0-277.333-124.413-277.333-277.333s124.413-277.333 277.333-277.333 277.333 124.413 277.333 277.333-124.413 277.333-277.333 277.333zM672 482.467c0-6.347-5.146-11.493-11.493-11.493v0h-79.387c-0.005 0-0.012 0-0.018 0-6.34 0-11.48 5.14-11.48 11.48 0 3.178 1.291 6.054 3.378 8.133l29.561 29.561-7.467 8.68c-21.225 22.011-50.971 35.68-83.91 35.68-64.345 0-116.507-52.162-116.507-116.507 0-64.341 52.156-116.501 116.496-116.507h0.001c50.421 0.049 93.353 32.056 109.635 76.855l0.258 0.812c3.019 8.367 10.89 14.24 20.133 14.24 11.793 0 21.353-9.56 21.353-21.353 0-2.55-0.447-4.995-1.267-7.262l0.047 0.149c-22.507-62.376-81.193-106.16-150.105-106.16-87.924 0-159.2 71.276-159.2 159.2 0 87.904 71.245 159.168 159.141 159.2h0.003c0.179 0.001 0.391 0.001 0.603 0.001 45.070 0 85.726-18.896 114.479-49.198l0.065-0.069 0.747-0.827 5.747-6.667 19.573 19.573c2.034 2.079 4.865 3.373 7.997 3.387h0.003c0.028 0 0.061 0.001 0.093 0.001 6.34 0 11.48-5.14 11.48-11.48 0-0.009 0-0.019 0-0.029v0.001z" />
<glyph unicode="&#xe92c;" glyph-name="remove-circle" data-tags="remove-circle" d="M512 725.333c-152.92 0-277.333-124.413-277.333-277.333s124.413-277.333 277.333-277.333 277.333 124.413 277.333 277.333-124.413 277.333-277.333 277.333zM618.667 426.667h-213.333c-11.782 0-21.333 9.551-21.333 21.333s9.551 21.333 21.333 21.333v0h213.333c11.782 0 21.333-9.551 21.333-21.333s-9.551-21.333-21.333-21.333v0z" />
<glyph unicode="&#xe92d;" glyph-name="scan-circle" data-tags="scan-circle" d="M512 725.333c-152.92 0-277.333-124.413-277.333-277.333s124.413-277.333 277.333-277.333 277.333 124.413 277.333 277.333-124.413 277.333-277.333 277.333zM458.667 298.667h-37.333c-32.385 0.038-58.629 26.281-58.667 58.663v37.337c0 11.782 9.551 21.333 21.333 21.333s21.333-9.551 21.333-21.333v0-37.333c0-8.837 7.163-16 16-16v0h37.333c11.782 0 21.333-9.551 21.333-21.333s-9.551-21.333-21.333-21.333v0zM458.667 554.667h-37.333c-8.837 0-16-7.163-16-16v0-37.333c0-11.782-9.551-21.333-21.333-21.333s-21.333 9.551-21.333 21.333v0 37.333c0.038 32.385 26.281 58.629 58.663 58.667h37.337c11.782 0 21.333-9.551 21.333-21.333s-9.551-21.333-21.333-21.333v0zM661.333 357.333c-0.038-32.385-26.281-58.629-58.663-58.667h-37.337c-11.782 0-21.333 9.551-21.333 21.333s9.551 21.333 21.333 21.333v0h37.333c8.837 0 16 7.163 16 16v0 37.333c0 11.782 9.551 21.333 21.333 21.333s21.333-9.551 21.333-21.333v0zM661.333 501.333c0-11.782-9.551-21.333-21.333-21.333s-21.333 9.551-21.333 21.333v0 37.333c0 8.837-7.163 16-16 16v0h-37.333c-11.782 0-21.333 9.551-21.333 21.333s9.551 21.333 21.333 21.333v0h37.333c32.385-0.038 58.629-26.281 58.667-58.663v-0.003z" />
<glyph unicode="&#xe92e;" glyph-name="search-circle" data-tags="search-circle" d="M512 704c-141.16 0-256-114.84-256-256s114.84-256 256-256 256 114.84 256 256-114.84 256-256 256zM633.747 326.253c-3.86-3.857-9.191-6.243-15.080-6.243s-11.22 2.386-15.080 6.243l-57.12 57.107c-18.609-12.952-41.687-20.693-66.574-20.693-64.86 0-117.44 52.58-117.44 117.44s52.58 117.44 117.44 117.44c64.86 0 117.44-52.58 117.44-117.44 0-24.887-7.741-47.965-20.947-66.96l0.254 0.386 57.107-57.12c3.857-3.86 6.243-9.191 6.243-15.080s-2.386-11.22-6.243-15.080v0zM554.667 480c0-41.237-33.429-74.667-74.667-74.667s-74.667 33.429-74.667 74.667c0 41.237 33.429 74.667 74.667 74.667s74.667-33.429 74.667-74.667z" />
<glyph unicode="&#xe92f;" glyph-name="stop-circle" data-tags="stop-circle" d="M512 725.333c-152.92 0-277.333-124.413-277.333-277.333s124.413-277.333 277.333-277.333 277.333 124.413 277.333 277.333-124.413 277.333-277.333 277.333zM618.667 375.467c-0.015-18.845-15.288-34.118-34.132-34.133h-145.068c-18.845 0.015-34.118 15.288-34.133 34.132v145.068c0.015 18.845 15.288 34.118 34.132 34.133h145.068c18.845-0.015 34.118-15.288 34.133-34.132v-0.001z" />
<glyph unicode="&#xe930;" glyph-name="sync-circle" data-tags="sync-circle" d="M512 725.333c-153.16 0-277.333-124.173-277.333-277.333s124.173-277.333 277.333-277.333 277.333 124.173 277.333 277.333-124.173 277.333-277.333 277.333zM623.587 348.467c-27.517-30.613-67.246-49.78-111.452-49.78-76.253 0-139.186 57.030-148.473 130.764l-0.075 0.737c-3.312-2.219-7.388-3.542-11.773-3.542-11.782 0-21.333 9.551-21.333 21.333 0 5.899 2.395 11.24 6.265 15.102l31.467 31.467c3.861 3.86 9.193 6.247 15.084 6.247 5.723 0 10.919-2.253 14.751-5.921l-0.008 0.007 32.893-31.467c4.099-3.895 6.648-9.387 6.648-15.474 0-11.782-9.551-21.333-21.333-21.333-3.389 0-6.594 0.79-9.439 2.197l0.125-0.056c9.56-50.096 53.017-87.449 105.199-87.449 31.646 0 60.083 13.738 79.673 35.576l0.088 0.1c3.897 4.115 9.4 6.677 15.501 6.677 11.782 0 21.333-9.551 21.333-21.333 0-5.318-1.946-10.182-5.165-13.918l0.023 0.028zM687.267 432.92l-31.467-31.467c-3.861-3.86-9.193-6.247-15.084-6.247-5.723 0-10.919 2.253-14.751 5.921l0.008-0.007-32.893 31.467c-4.034 3.887-6.539 9.336-6.539 15.37 0 11.782 9.551 21.333 21.333 21.333 3.181 0 6.2-0.696 8.911-1.945l-0.133 0.055c-9.588 50.001-52.98 87.269-105.077 87.269-31.559 0-59.924-13.677-79.491-35.426l-0.086-0.097c-3.922-4.359-9.583-7.087-15.88-7.087-11.783 0-21.334 9.551-21.334 21.334 0 5.485 2.070 10.487 5.471 14.266l-0.017-0.019c27.497 30.566 67.183 49.701 111.339 49.701 76.339 0 139.319-57.194 148.428-131.069l0.073-0.726c3.365 2.321 7.529 3.707 12.017 3.707 11.782 0 21.333-9.551 21.333-21.333 0-5.849-2.354-11.148-6.166-15.002l0.002 0.002z" />
</font>
</defs>
</svg>
